<?xml version="1.0" encoding="UTF-8"?>
<svg width="216px" height="79px" viewBox="0 0 216 79" version="1.1" xmlns="http://www.w3.org/2000/svg" xmlns:xlink="http://www.w3.org/1999/xlink">
    <!-- Generator: Sketch 52.5 (67469) - http://www.bohemiancoding.com/sketch -->
    <title>Combined Shape</title>
    <desc>Created with Sketch.</desc>
    <g id="Page-1" stroke="none" stroke-width="1" fill="none" fill-rule="evenodd">
        <g id="Desktop-HD" transform="translate(-754.000000, -668.000000)" fill="#FFFFFF" fill-rule="nonzero">
            <path d="M903.151173,668 L955.478104,668 L970,680 L970,735 L955.478104,747 L768.521896,747 L754,735 L754,680 L768.521896,668 L903.151173,668 Z M781,707.55 L781,704.05 L787.95,697 L798.45,697 L798.45,707.55 L781,707.55 Z M781,725 L781,714.55 L798.45,714.55 L798.45,725 L805.4,725 L805.4,690 L784.45,690 L774,700.55 L774,725 L781,725 Z M817.4,718 L817.4,711.05 L834.85,711.05 L834.85,718 L817.4,718 Z M817.4,704.05 L817.4,697 L834.85,697 L834.85,704.05 L817.4,704.05 Z M838.35,725 L841.8,721.55 L841.8,711.05 L838.35,707.55 L841.8,704.05 L841.8,693.55 L838.35,690 L810.4,690 L810.4,725 L838.35,725 Z M853.8,718 L853.8,697 L871.25,697 L871.25,718 L853.8,718 Z M874.75,725 L878.2,721.55 L878.2,693.55 L874.75,690 L850.25,690 L846.8,693.55 L846.8,721.55 L850.25,725 L874.75,725 Z M883.2,690 L883.2,721.55 L886.65,725 L911.15,725 L914.6,721.55 L914.6,690 L907.65,690 L907.65,718 L890.2,718 L890.2,690 L883.2,690 Z M937.35,725 L937.35,697 L949.5,697 L949.5,690 L918.1,690 L918.1,697 L930.35,697 L930.35,725 L937.35,725 Z" id="Combined-Shape"></path>
        </g>
    </g>
</svg>