<svg width="300" height="56" viewBox="0 0 300 56" fill="none" xmlns="http://www.w3.org/2000/svg">
<g clip-path="url(#clip0_630_1528)">
<path d="M42.1544 0H13.8804C6.21445 0 0 6.2106 0 13.8718V42.1282C0 49.7894 6.21445 56 13.8804 56H42.1544C49.8203 56 56.0348 49.7894 56.0348 42.1282V13.8718C56.0348 6.2106 49.8203 0 42.1544 0Z" fill="white"/>
<path d="M8.52615 5.65679C14.3934 10.7082 21.3158 13.6079 27.5395 13.6079C34.1553 13.6079 42.0472 10.4375 47.6578 5.52855L50.431 2.74993C48.041 0.959162 45.1342 -0.00835123 42.147 -0.0073234H13.8801C10.8997 -0.0078498 7.99897 0.954284 5.61035 2.73566L8.52615 5.65679Z" fill="#ED1C24"/>
<path d="M41.9405 28.0002C42.0013 31.1553 42.6718 34.2689 43.9153 37.1697C42.2857 36.2132 40.5893 35.3751 38.8394 34.6618C38.2407 32.4912 37.9291 30.2516 37.9126 28.0002C37.9126 22.8562 39.6307 18.0613 41.6982 14.1498C37.286 16.3199 32.4557 17.5085 27.5398 17.6338C22.1145 17.6338 16.29 15.7671 10.9289 12.4043C9.83104 11.6918 8.75454 10.9437 7.71369 10.1244C7.71369 10.1244 6.28788 9.01293 5.52506 8.34321L2.7661 5.58594C0.969828 7.97261 -0.0010338 10.8784 1.85736e-06 13.8648V42.1284C-0.0015436 45.105 0.961392 48.002 2.74471 50.3859L5.65338 47.4791C10.936 41.3162 14.0943 34.0491 14.0943 28.0002C14.0217 24.8291 13.3316 21.7024 12.0625 18.7951C13.7026 19.7657 15.4137 20.6112 17.1812 21.3244C17.7822 23.4995 18.0962 25.7438 18.1151 28.0002C17.9969 32.7363 16.7531 37.3763 14.4863 41.5371C18.621 39.3925 23.1895 38.2158 27.8463 38.0959C34.9255 38.0959 42.0617 41.3732 47.2731 45.0567C47.6296 45.3132 47.9789 45.5768 48.3211 45.8475C48.3211 45.8475 49.7469 46.959 50.5097 47.6287L53.2687 50.3859C55.0659 47.9998 56.0369 45.0937 56.0348 42.1071V13.8648C56.0327 10.8878 55.0674 7.99115 53.2829 5.60733L50.3743 8.51419C45.0916 14.677 41.9405 21.9513 41.9405 28.0002Z" fill="#ED1C24"/>
<path d="M47.5082 50.3429C42.8101 46.3531 35.2319 42.1353 27.8461 42.1353C21.6153 42.1353 14.3365 45.2487 8.37654 50.464L5.59619 53.2426C7.98824 55.0356 10.8973 56.0055 13.8873 56.007H42.1543C45.1334 56.006 48.0321 55.0412 50.4169 53.2569L47.5082 50.3429Z" fill="#ED1C24"/>
<path d="M22.2285 33.7782C22.2285 33.7782 24.5597 31.0708 24.5597 28.0001C24.5597 24.9293 22.2285 22.2148 22.2285 22.2148C22.2285 22.2148 24.9447 24.5375 28.0174 24.5375C30.9831 24.5375 33.8062 22.2148 33.8062 22.2148C33.8062 22.2148 31.4821 24.9293 31.4821 28.0001C31.4821 31.0708 33.8062 33.7782 33.8062 33.7782C33.8062 33.7782 31.09 31.4556 28.0174 31.4556C25.0517 31.4556 22.2285 33.7782 22.2285 33.7782Z" fill="white"/>
<path d="M104.705 36.8846C104.705 43.7813 99.7146 47.764 91.9796 47.764H75.3188V10.0459H91.8726C98.8235 10.0459 103.408 13.3874 103.408 19.8566C103.408 23.6256 101.789 25.8912 98.7166 27.4515C102.766 28.7981 104.705 32.4602 104.705 36.8846ZM90.846 17.3772H83.004V24.9721H91.0599C94.2466 24.9721 95.6439 23.6826 95.6439 21.1462C95.6439 18.396 94.0827 17.3772 90.846 17.3772ZM96.8844 36.2362C96.8844 33.4861 95.7509 32.0327 91.7657 32.0327H83.0254V40.4398H91.8156C95.7509 40.4398 96.8844 38.7655 96.8844 36.2362Z" fill="white"/>
<path d="M139.588 34.9396H116.839C117.324 39.6846 120.553 42.0642 124.546 42.0642C127.511 42.0642 130.099 40.7177 131.126 38.3452H139.103C136.893 45.3487 130.962 48.4195 124.603 48.4195C115.335 48.4195 108.961 41.8434 108.961 33.0088C108.961 24.1742 115.378 17.4912 124.439 17.4912C134.256 17.4841 140.344 25.1859 139.588 34.9396ZM117.217 29.2826H131.397C131.054 27.6959 130.163 26.2805 128.88 25.285C127.598 24.2896 126.005 23.7777 124.382 23.8393C120.61 23.8393 118.187 26.1049 117.217 29.2826Z" fill="white"/>
<path d="M153.297 9.42611C153.304 10.0476 153.183 10.6639 152.941 11.2366C152.7 11.8093 152.343 12.3263 151.893 12.7553C151.443 13.1843 150.909 13.5162 150.326 13.7304C149.742 13.9445 149.12 14.0364 148.499 14.0002C147.88 14.0348 147.259 13.9428 146.676 13.7296C146.094 13.5165 145.56 13.1868 145.109 12.7606C144.658 12.3344 144.299 11.8208 144.054 11.2512C143.808 10.6815 143.682 10.0677 143.682 9.44748C143.682 8.82722 143.808 8.21348 144.054 7.64381C144.299 7.07414 144.658 6.56051 145.109 6.13436C145.56 5.7082 146.094 5.37848 146.676 5.16534C147.259 4.95221 147.88 4.86016 148.499 4.89482C151.301 4.86632 153.297 6.75435 153.297 9.42611ZM144.614 18.1538H152.328V47.7925H144.614V18.1538Z" fill="white"/>
<path d="M231.532 34.9396H208.783C209.268 39.6846 212.497 42.0642 216.49 42.0642C219.455 42.0642 222.043 40.7177 223.07 38.3452H231.047C228.837 45.3487 222.906 48.4195 216.547 48.4195C207.279 48.4195 200.905 41.8434 200.905 33.0088C200.905 24.1742 207.321 17.4912 216.383 17.4912C226.199 17.4841 232.288 25.1859 231.532 34.9396ZM209.161 29.2826H223.341C223 27.6964 222.11 26.2812 220.828 25.2857C219.547 24.2901 217.955 23.778 216.333 23.8393C212.554 23.8393 210.13 26.1049 209.161 29.2826Z" fill="white"/>
<path d="M264.29 29.1756V47.7639H256.576V30.8428C256.576 26.967 255.151 24.8082 251.023 24.8082C246.653 24.8082 244.336 27.3446 244.336 32.1965V47.7639H236.622V18.1253H244.336V22.1721C245.347 20.6724 246.724 19.455 248.337 18.6348C249.95 17.8145 251.745 17.4185 253.554 17.484C260.241 17.484 264.29 21.9013 264.29 29.1756Z" fill="white"/>
<path d="M299.936 34.9396H277.18C277.664 39.6846 280.901 42.0642 284.893 42.0642C287.859 42.0642 290.447 40.7177 291.466 38.3452H299.451C297.241 45.3487 291.31 48.4195 284.943 48.4195C275.675 48.4195 269.309 41.8434 269.309 33.0088C269.309 24.1742 275.725 17.4912 284.786 17.4912C294.596 17.4841 300.691 25.1859 299.936 34.9396ZM277.557 29.2826H291.737C291.396 27.6964 290.507 26.2812 289.225 25.2857C287.943 24.2901 286.352 23.778 284.729 23.8393C280.951 23.8393 278.527 26.1049 277.557 29.2826Z" fill="white"/>
<path d="M178.606 29.5605V35.93H187.054C185.917 37.5488 184.406 38.8703 182.651 39.783C180.895 40.6957 178.945 41.1727 176.966 41.1738C175.973 41.1689 174.984 41.0421 174.022 40.7962L168.889 46.6883C172.384 48.267 176.265 48.7866 180.053 48.1825C183.841 47.5784 187.368 45.8773 190.198 43.2898V48.3839H196.571V29.5605H178.606Z" fill="#ED1C24"/>
<path d="M176.866 9.31885C165.759 9.31885 157.24 17.726 157.24 28.8191C157.188 32.11 157.987 35.3586 159.559 38.2506C161.131 41.1425 163.424 43.58 166.215 45.327L171.206 39.6273C167.463 37.6537 165.025 33.7138 165.025 28.8262C165.025 21.7728 170.093 16.6502 176.888 16.6502C179.039 16.6071 181.159 17.1703 183.005 18.2753C184.85 19.3804 186.348 20.9826 187.325 22.8985H195.644C193.178 14.8761 185.877 9.31885 176.866 9.31885Z" fill="white"/>
</g>
<defs>
<clipPath id="clip0_630_1528">
<rect width="300" height="56" fill="white"/>
</clipPath>
</defs>
</svg>
