<?xml version="1.0" encoding="UTF-8"?>
<svg width="286px" height="79px" viewBox="0 0 286 79" version="1.1" xmlns="http://www.w3.org/2000/svg" xmlns:xlink="http://www.w3.org/1999/xlink">
    <!-- Generator: Sketch 52.5 (67469) - http://www.bohemiancoding.com/sketch -->
    <title>Combined Shape</title>
    <desc>Created with Sketch.</desc>
    <g id="Page-1" stroke="none" stroke-width="1" fill="none" fill-rule="evenodd">
        <g id="Desktop-HD" transform="translate(-754.000000, -562.000000)" fill="#FFFFFF" fill-rule="nonzero">
            <path d="M903.151173,562 L1025.4781,562 L1040,574 L1040,629 L1025.4781,641 L768.521896,641 L754,629 L754,574 L768.521896,562 L903.151173,562 Z M802.95,619 L806.4,615.55 L806.4,608.55 L799.45,608.55 L799.45,612 L782,612 L782,591 L799.45,591 L799.45,594.5 L806.4,594.5 L806.4,587.55 L802.95,584 L778.45,584 L775,587.55 L775,615.55 L778.45,619 L802.95,619 Z M817.9,612 L817.9,591 L835.35,591 L835.35,612 L817.9,612 Z M838.85,619 L842.3,615.55 L842.3,587.55 L838.85,584 L814.35,584 L810.9,587.55 L810.9,615.55 L814.35,619 L838.85,619 Z M878.7,619 L878.7,584 L871.75,584 L871.75,607.3 L854.3,584 L847.3,584 L847.3,619 L854.3,619 L854.3,595.65 L871.75,619 L878.7,619 Z M901.45,619 L901.45,591 L913.6,591 L913.6,584 L882.2,584 L882.2,591 L894.45,591 L894.45,619 L901.45,619 Z M923.6,601.55 L923.6,598.05 L930.55,591 L941.05,591 L941.05,601.55 L923.6,601.55 Z M923.6,619 L923.6,608.55 L941.05,608.55 L941.05,619 L948,619 L948,584 L927.05,584 L916.6,594.55 L916.6,619 L923.6,619 Z M980.95,619 L984.4,615.55 L984.4,608.55 L977.45,608.55 L977.45,612 L960,612 L960,591 L977.45,591 L977.45,594.5 L984.4,594.5 L984.4,587.55 L980.95,584 L956.45,584 L953,587.55 L953,615.55 L956.45,619 L980.95,619 Z M1006.65,619 L1006.65,591 L1018.8,591 L1018.8,584 L987.4,584 L987.4,591 L999.65,591 L999.65,619 L1006.65,619 Z" id="Combined-Shape"></path>
        </g>
    </g>
</svg>