<svg xmlns="http://www.w3.org/2000/svg" xmlns:xlink="http://www.w3.org/1999/xlink" viewBox="0 0 750 183.67"><defs><style>.cls-1{isolation:isolate;}.cls-2{fill:url(#linear-gradient);}.cls-3{fill:url(#linear-gradient-2);}.cls-4{fill:url(#linear-gradient-3);}.cls-5{fill:url(#linear-gradient-4);}.cls-6{fill:url(#linear-gradient-5);}.cls-7{fill:url(#linear-gradient-6);}.cls-8{fill:url(#linear-gradient-7);}.cls-9{opacity:0.2;mix-blend-mode:multiply;fill:url(#linear-gradient-8);}.cls-10{fill:#f64c50;}.cls-11{fill:url(#linear-gradient-9);}.cls-12{fill:url(#linear-gradient-10);}.cls-13{fill:url(#linear-gradient-11);}.cls-14{fill:url(#linear-gradient-12);}.cls-15{fill:url(#linear-gradient-13);}</style><linearGradient id="linear-gradient" x1="259.27" y1="-67.33" x2="259.27" y2="148.67" gradientTransform="matrix(-1, 0, 0, 1, 750, 0)" gradientUnits="userSpaceOnUse"><stop offset="0" stop-color="#be4449"/><stop offset="0.06" stop-color="#b1424a"/><stop offset="0.27" stop-color="#863d4d"/><stop offset="0.47" stop-color="#65394f"/><stop offset="0.67" stop-color="#4d3551"/><stop offset="0.85" stop-color="#3f3452"/><stop offset="1" stop-color="#3a3352"/></linearGradient><linearGradient id="linear-gradient-2" x1="168.94" y1="-4.74" x2="156.27" y2="56.6" gradientTransform="matrix(-1, 0, 0, 1, 750, 0)" gradientUnits="userSpaceOnUse"><stop offset="0" stop-color="#f64c50"/><stop offset="0.01" stop-color="#f04b50"/><stop offset="0.09" stop-color="#c64651"/><stop offset="0.17" stop-color="#a04151"/><stop offset="0.26" stop-color="#803c51"/><stop offset="0.36" stop-color="#673952"/><stop offset="0.47" stop-color="#533652"/><stop offset="0.59" stop-color="#453452"/><stop offset="0.74" stop-color="#3c3352"/><stop offset="1" stop-color="#3a3352"/></linearGradient><linearGradient id="linear-gradient-3" x1="394.18" y1="4.65" x2="353.18" y2="184.65" xlink:href="#linear-gradient-2"/><linearGradient id="linear-gradient-4" x1="246.39" y1="37.42" x2="211.39" y2="198.42" gradientTransform="matrix(-1, 0, 0, 1, 750, 0)" gradientUnits="userSpaceOnUse"><stop offset="0" stop-color="#483452"/><stop offset="0.04" stop-color="#453350"/><stop offset="0.26" stop-color="#372d49"/><stop offset="0.53" stop-color="#2e2944"/><stop offset="1" stop-color="#2c2843"/></linearGradient><linearGradient id="linear-gradient-5" x1="331.28" y1="60.02" x2="332.28" y2="121.02" xlink:href="#linear-gradient-4"/><linearGradient id="linear-gradient-6" x1="648.53" y1="-45.33" x2="648.53" y2="127.85" xlink:href="#linear-gradient"/><linearGradient id="linear-gradient-7" x1="375" y1="63.67" x2="375" y2="222.67" xlink:href="#linear-gradient"/><linearGradient id="linear-gradient-8" x1="375.83" y1="49.08" x2="373.83" y2="262.08" xlink:href="#linear-gradient-2"/><linearGradient id="linear-gradient-9" x1="118.7" y1="116.06" x2="77.37" y2="353.39" xlink:href="#linear-gradient-2"/><linearGradient id="linear-gradient-10" x1="427.53" y1="108.67" x2="652.61" y2="108.67" xlink:href="#linear-gradient-4"/><linearGradient id="linear-gradient-11" x1="529.12" y1="42.55" x2="524.12" y2="232.55" gradientTransform="matrix(-1, 0, 0, 1, 750, 0)" gradientUnits="userSpaceOnUse"><stop offset="0" stop-color="#f64c50"/><stop offset="0.22" stop-color="#c24551"/><stop offset="0.49" stop-color="#883d51"/><stop offset="0.71" stop-color="#5e3852"/><stop offset="0.89" stop-color="#443452"/><stop offset="1" stop-color="#3a3352"/></linearGradient><linearGradient id="linear-gradient-12" x1="541.84" y1="40.2" x2="501.26" y2="218.33" xlink:href="#linear-gradient-2"/><linearGradient id="linear-gradient-13" x1="655.96" y1="52.98" x2="692.13" y2="326.48" xlink:href="#linear-gradient-2"/></defs><title>landscape-flip</title><g class="cls-1"><g id="Layer_1" data-name="Layer 1"><polygon class="cls-2" points="365.47 44.67 387.47 35.67 400.47 34.67 432.47 47.67 453.47 56.67 474.47 61.67 526.47 42.67 574.47 8.67 593.47 2.67 634.47 22.67 661.47 42.67 689.47 51.67 728.47 63.67 750 65.51 750 119.02 231.47 110.67 288.47 85.67 328.47 69.67 365.47 44.67"/><polygon class="cls-3" points="654.13 37.33 632.13 30 620.8 24.67 607.47 19.33 612.8 29.33 606.8 28.67 589.47 28 572.8 30 584.13 24 596.8 20.67 578.8 22.67 566.13 28 542.8 37.33 526.47 42.67 551.47 24 572.13 8.67 595.47 0 620.13 14.67 642.13 28 654.13 37.33"/><polygon class="cls-4" points="458.8 58.67 425.47 53.33 405.47 46.67 389.47 46 403.47 43.33 392.13 40.67 376.8 46.67 347.47 65.33 334.8 72.67 346.8 78 368.8 82 385.47 85.33 356.13 85.33 330.8 82 310.8 82.67 284.13 88 326.13 68.67 382.8 36 399.47 32 437.47 50 458.8 58.67"/><path class="cls-5" d="M275.09,91.53l13.38-5.86,1.24-.5L320.8,86l31.33-1.33L389.47,78l24.66,7.33,36,1.34,21.34-3.34,16.66-2.66L477.47,86l14,.67,11.33-6,14.67,8,34,2.66s34.66-3.33,36.66-4,40.67-2.66,40.67-2.66l32-8,24-2.67,31.33,6.67L705.47,70,688.13,60l-10-12,11.31,3.64,39,12L750,65.51V119l-462.62-7.45C284.42,106.55,278.94,97.71,275.09,91.53Z" transform="translate(0 0)"/><polygon class="cls-6" points="463.47 64.67 442.97 72.67 432.47 79.17 414.47 82.67 395.97 87.17 373.47 86.17 396.97 83.17 419.47 76.17 432.47 76.17 442.97 70.17 463.47 64.67"/><polygon class="cls-7" points="10.13 105.33 19.47 100 35.47 89.33 48.13 83.33 62.13 86 75.47 88 92.8 81.33 109.47 72 120.8 72.67 138.13 83.33 152.8 92 173.47 97.33 192.8 104.67 181.78 104.17 176.8 107.33 162.13 107.33 148.13 109.33 124.13 108 112.13 108 102.13 108 95.47 109.33 90.13 107.33 64.13 106 52.8 108.67 40.8 106 29.57 104.53 10.13 105.33"/><path class="cls-8" d="M41.93,94.25l96,3s151.49-12,157.49-9,196.15,1.51,196.49,6c.57,7.42,129,1.5,129,1.5L750,90.43v93.24H0V87.39Z" transform="translate(0 0)"/><path class="cls-9" d="M0,101.08c35.21,1.14,72.19,2.94,82.42,3.67,21,1.5,49.5,13.5,49.5,13.5l30,10.5-52.5,4.5,52.5,12,34.5-4.5,55.5-3-49.5,10.5-25.5,10.5,69,6,37.49,3,157.5,3,49.49-4.5-33-3s33-6,37.49-6,36-4.5,36-4.5h57l84-3-13.49-10.5-30-6-31.5-7.5,21-3,42-3,34.57-3.08-19.58-7.42-103.49-6-19.61-5.39c33.71-.48,69.11-2.11,69.11-2.11L750,90.43v93.24H0Z" transform="translate(0 0)"/><polygon class="cls-10" points="529.47 169.67 551.47 161.67 557.47 148.67 571.47 138.67 598.47 141.67 625.47 153.67 646.47 137.67 694.47 116.67 727.47 83.67 750 74.65 750 183.67 511.16 183.67 529.47 169.67"/><polygon class="cls-11" points="531.47 175.33 543.47 173.33 558.13 168 580.8 163.33 610.8 170 639.47 164.67 663.47 162.67 687.47 155.33 662.8 157.33 645.47 158.67 660.8 150 691.47 140.67 726.8 124.67 744.8 92.67 750 86.86 750 183.67 519.29 183.67 531.47 175.33"/><path class="cls-12" d="M298.47,100.67c.5-1.5,24,3.5,24,3.5l-22.5,5-37,2-35,6.5-56.5-3-31.5-4.5s-41,1-42.5,1.5,20-7,20-7l24-3.5s84,.5,86.5.5,53-2,54.5-2S298.47,100.67,298.47,100.67Z" transform="translate(0 0)"/><polygon class="cls-13" points="131.13 103.33 140.47 98 156.47 87.33 169.13 81.33 183.13 84 196.47 86 213.8 79.33 230.47 70 241.8 70.67 259.13 81.33 273.8 90 294.47 95.33 313.8 102.67 302.78 102.17 297.8 105.33 283.13 105.33 269.13 107.33 245.13 106 233.13 106 223.13 106 216.47 107.33 211.13 105.33 185.13 104 173.8 106.67 161.8 104 150.57 102.53 131.13 103.33"/><path class="cls-14" d="M153,95.67l15-9,7-2-3.5,4-5,2.5-2,4,8-2.5,10.5-1.5,12.5,4.5,9.5-2,16.5-8.5,10.5-10,9-2,15.5,12.5-2.5-5,7.5,6s8.5,6,10,6c.71,0,6.21-.12,11.76-.24l11.24,2.9,19.33,7.34-11-.5-5,3.16H283.13l-14,2-24-1.33h-22l-6.66,1.33-5.34-2-26-1.33-11.33,2.67-12-2.67-11.23-1.47-19.44.8Z" transform="translate(0 0)"/><polygon class="cls-10" points="0 183.67 0 27.84 45.47 49.67 70.47 81.67 116.47 107.67 134.47 139.67 154.47 165.67 176.26 183.67 0 183.67"/><polygon class="cls-15" points="171.69 183.67 0 183.67 0 46.19 10.47 73.67 48.47 102.67 65.47 123.67 52.47 113.67 32.47 102.67 54.47 124.67 91.47 145.67 110.47 164.67 149.47 170.67 171.69 183.67"/></g></g></svg>