<svg xmlns="http://www.w3.org/2000/svg" xmlns:xlink="http://www.w3.org/1999/xlink" viewBox="0 0 750 183.67"><defs><style>.cls-1{isolation:isolate;}.cls-2{fill:url(#linear-gradient);}.cls-3{fill:url(#linear-gradient-2);}.cls-4{fill:url(#linear-gradient-3);}.cls-5{fill:url(#linear-gradient-4);}.cls-6{fill:url(#linear-gradient-5);}.cls-7{fill:url(#linear-gradient-6);}.cls-8{fill:url(#linear-gradient-7);}.cls-9{opacity:0.2;mix-blend-mode:multiply;fill:url(#linear-gradient-8);}.cls-10{fill:#f64c50;}.cls-11{fill:url(#linear-gradient-9);}.cls-12{fill:url(#linear-gradient-10);}.cls-13{fill:url(#linear-gradient-11);}.cls-14{fill:url(#linear-gradient-12);}.cls-15{fill:url(#linear-gradient-13);}</style><linearGradient id="linear-gradient" x1="259.27" y1="-22.33" x2="259.27" y2="193.67" gradientUnits="userSpaceOnUse"><stop offset="0" stop-color="#be4449"/><stop offset="0.06" stop-color="#b1424a"/><stop offset="0.27" stop-color="#863d4d"/><stop offset="0.47" stop-color="#65394f"/><stop offset="0.67" stop-color="#4d3551"/><stop offset="0.85" stop-color="#3f3452"/><stop offset="1" stop-color="#3a3352"/></linearGradient><linearGradient id="linear-gradient-2" x1="168.94" y1="40.26" x2="156.27" y2="101.6" gradientUnits="userSpaceOnUse"><stop offset="0" stop-color="#f64c50"/><stop offset="0.01" stop-color="#f04b50"/><stop offset="0.09" stop-color="#c64651"/><stop offset="0.17" stop-color="#a04151"/><stop offset="0.26" stop-color="#803c51"/><stop offset="0.36" stop-color="#673952"/><stop offset="0.47" stop-color="#533652"/><stop offset="0.59" stop-color="#453452"/><stop offset="0.74" stop-color="#3c3352"/><stop offset="1" stop-color="#3a3352"/></linearGradient><linearGradient id="linear-gradient-3" x1="394.18" y1="49.65" x2="353.18" y2="229.65" xlink:href="#linear-gradient-2"/><linearGradient id="linear-gradient-4" x1="246.39" y1="82.42" x2="211.39" y2="243.42" gradientUnits="userSpaceOnUse"><stop offset="0" stop-color="#483452"/><stop offset="0.04" stop-color="#453350"/><stop offset="0.26" stop-color="#372d49"/><stop offset="0.53" stop-color="#2e2944"/><stop offset="1" stop-color="#2c2843"/></linearGradient><linearGradient id="linear-gradient-5" x1="331.28" y1="105.02" x2="332.28" y2="166.02" xlink:href="#linear-gradient-4"/><linearGradient id="linear-gradient-6" x1="648.53" y1="-0.33" x2="648.53" y2="172.85" xlink:href="#linear-gradient"/><linearGradient id="linear-gradient-7" x1="375" y1="108.67" x2="375" y2="267.67" xlink:href="#linear-gradient"/><linearGradient id="linear-gradient-8" x1="375.83" y1="94.08" x2="373.83" y2="307.08" xlink:href="#linear-gradient-2"/><linearGradient id="linear-gradient-9" x1="118.7" y1="116.06" x2="77.37" y2="353.39" xlink:href="#linear-gradient-2"/><linearGradient id="linear-gradient-10" x1="427.53" y1="153.67" x2="652.61" y2="153.67" xlink:href="#linear-gradient-4"/><linearGradient id="linear-gradient-11" x1="529.12" y1="87.55" x2="524.12" y2="277.55" gradientUnits="userSpaceOnUse"><stop offset="0" stop-color="#f64c50"/><stop offset="0.22" stop-color="#c24551"/><stop offset="0.49" stop-color="#883d51"/><stop offset="0.71" stop-color="#5e3852"/><stop offset="0.89" stop-color="#443452"/><stop offset="1" stop-color="#3a3352"/></linearGradient><linearGradient id="linear-gradient-12" x1="541.84" y1="85.2" x2="501.26" y2="263.33" xlink:href="#linear-gradient-2"/><linearGradient id="linear-gradient-13" x1="655.96" y1="52.98" x2="692.13" y2="326.48" xlink:href="#linear-gradient-2"/></defs><title>landscape2</title><g class="cls-1"><g id="Layer_1" data-name="Layer 1"><polygon class="cls-2" points="384.53 89.67 362.53 80.67 349.53 79.67 317.53 92.67 296.53 101.67 275.53 106.67 223.53 87.67 175.53 53.67 156.53 47.67 115.53 67.67 88.53 87.67 60.53 96.67 21.53 108.67 0 110.51 0 164.01 518.53 155.67 461.53 130.67 421.53 114.67 384.53 89.67"/><polygon class="cls-3" points="95.87 82.33 117.87 75 129.2 69.67 142.53 64.33 137.2 74.33 143.2 73.67 160.53 73 177.2 75 165.87 69 153.2 65.67 171.2 67.67 183.87 73 207.2 82.33 223.53 87.67 198.53 69 177.87 53.67 154.53 45 129.87 59.67 107.87 73 95.87 82.33"/><polygon class="cls-4" points="291.2 103.67 324.53 98.33 344.53 91.67 360.53 91 346.53 88.33 357.87 85.67 373.2 91.67 402.53 110.33 415.2 117.67 403.2 123 381.2 127 364.53 130.33 393.87 130.33 419.2 127 439.2 127.67 465.87 133 423.87 113.67 367.2 81 350.53 77 312.53 95 291.2 103.67"/><path class="cls-5" d="M474.91,136.53l-13.38-5.86-1.24-.5L429.2,131l-31.33-1.33L360.53,123l-24.66,7.33-36,1.34-21.34-3.34-16.66-2.66L272.53,131l-14,.67-11.33-6-14.67,8-34,2.66s-34.66-3.33-36.66-4-40.67-2.66-40.67-2.66l-32-8L65.2,119l-31.33,6.67L44.53,115l17.34-10,10-12L60.53,96.67l-39,12L0,110.51V164l462.62-7.45C465.58,151.55,471.06,142.71,474.91,136.53Z"/><polygon class="cls-6" points="286.53 109.67 307.03 117.67 317.53 124.17 335.53 127.67 354.03 132.17 376.53 131.17 353.03 128.17 330.53 121.17 317.53 121.17 307.03 115.17 286.53 109.67"/><polygon class="cls-7" points="739.87 150.33 730.53 145 714.53 134.33 701.87 128.33 687.87 131 674.53 133 657.2 126.33 640.53 117 629.2 117.67 611.87 128.33 597.2 137 576.53 142.33 557.2 149.67 568.22 149.17 573.2 152.33 587.87 152.33 601.87 154.33 625.87 153 637.87 153 647.87 153 654.53 154.33 659.87 152.33 685.87 151 697.2 153.67 709.2 151 720.43 149.53 739.87 150.33"/><path class="cls-8" d="M708.07,139.25l-96,3s-151.49-12-157.49-9-196.15,1.51-196.49,6c-.57,7.42-129,1.5-129,1.5L0,135.43v93.24H750V132.39Z"/><path class="cls-9" d="M750,146.08c-35.21,1.14-72.19,2.94-82.42,3.67-21,1.5-49.5,13.5-49.5,13.5l-30,10.5,52.5,4.5-52.5,12-34.5-4.5-55.5-3,49.5,10.5,25.5,10.5-69,6-37.49,3-157.5,3-49.49-4.5,33-3s-33-6-37.49-6-36-4.5-36-4.5h-57l-84-3,13.49-10.5,30-6,31.5-7.5-21-3-42-3-34.57-3.08,19.58-7.42,103.49-6,19.61-5.39c-33.71-.48-69.11-2.11-69.11-2.11L0,135.43v93.24H750Z"/><polygon class="cls-10" points="220.53 169.67 198.53 161.67 192.53 148.67 178.53 138.67 151.53 141.67 124.53 153.67 103.53 137.67 55.53 116.67 22.53 83.67 0 74.65 0 183.67 238.84 183.67 220.53 169.67"/><polygon class="cls-11" points="218.53 175.33 206.53 173.33 191.87 168 169.2 163.33 139.2 170 110.53 164.67 86.53 162.67 62.53 155.33 87.2 157.33 104.53 158.67 89.2 150 58.53 140.67 23.2 124.67 5.2 92.67 0 86.86 0 183.67 230.71 183.67 218.53 175.33"/><path class="cls-12" d="M451.53,145.67c-.5-1.5-24,3.5-24,3.5l22.5,5,37,2,35,6.5,56.5-3,31.5-4.5s41,1,42.5,1.5-20-7-20-7l-24-3.5s-84,.5-86.5.5-53-2-54.5-2S451.53,145.67,451.53,145.67Z"/><polygon class="cls-13" points="618.87 148.33 609.53 143 593.53 132.33 580.87 126.33 566.87 129 553.53 131 536.2 124.33 519.53 115 508.2 115.67 490.87 126.33 476.2 135 455.53 140.33 436.2 147.67 447.22 147.17 452.2 150.33 466.87 150.33 480.87 152.33 504.87 151 516.87 151 526.87 151 533.53 152.33 538.87 150.33 564.87 149 576.2 151.67 588.2 149 599.43 147.53 618.87 148.33"/><path class="cls-14" d="M597,140.67l-15-9-7-2,3.5,4,5,2.5,2,4-8-2.5-10.5-1.5-12.5,4.5-9.5-2-16.5-8.5-10.5-10-9-2-15.5,12.5,2.5-5-7.5,6s-8.5,6-10,6c-.71,0-6.21-.12-11.76-.24l-11.24,2.9-19.33,7.34,11-.5,5,3.16h14.67l14,2,24-1.33h22l6.66,1.33,5.34-2,26-1.33,11.33,2.67,12-2.67,11.23-1.47,19.44.8Z"/><polygon class="cls-10" points="750 183.67 750 27.84 704.53 49.67 679.53 81.67 633.53 107.67 615.53 139.67 595.53 165.67 573.74 183.67 750 183.67"/><polygon class="cls-15" points="578.31 183.67 750 183.67 750 46.19 739.53 73.67 701.53 102.67 684.53 123.67 697.53 113.67 717.53 102.67 695.53 124.67 658.53 145.67 639.53 164.67 600.53 170.67 578.31 183.67"/></g></g></svg>