<svg xmlns="http://www.w3.org/2000/svg" xmlns:xlink="http://www.w3.org/1999/xlink" viewBox="0 0 750 183.67"><defs><style>.cls-1{isolation:isolate;}.cls-2{fill:url(#linear-gradient);}.cls-3{opacity:0.2;mix-blend-mode:multiply;fill:url(#linear-gradient-2);}.cls-4{fill:#f64c50;}.cls-5{fill:url(#linear-gradient-3);}.cls-6{fill:url(#linear-gradient-4);}</style><linearGradient id="linear-gradient" x1="375" y1="108.67" x2="375" y2="267.67" gradientUnits="userSpaceOnUse"><stop offset="0" stop-color="#be4449"/><stop offset="0.06" stop-color="#b1424a"/><stop offset="0.27" stop-color="#863d4d"/><stop offset="0.47" stop-color="#65394f"/><stop offset="0.67" stop-color="#4d3551"/><stop offset="0.85" stop-color="#3f3452"/><stop offset="1" stop-color="#3a3352"/></linearGradient><linearGradient id="linear-gradient-2" x1="375.83" y1="94.08" x2="373.83" y2="307.08" gradientUnits="userSpaceOnUse"><stop offset="0" stop-color="#f64c50"/><stop offset="0.01" stop-color="#f04b50"/><stop offset="0.09" stop-color="#c64651"/><stop offset="0.17" stop-color="#a04151"/><stop offset="0.26" stop-color="#803c51"/><stop offset="0.36" stop-color="#673952"/><stop offset="0.47" stop-color="#533652"/><stop offset="0.59" stop-color="#453452"/><stop offset="0.74" stop-color="#3c3352"/><stop offset="1" stop-color="#3a3352"/></linearGradient><linearGradient id="linear-gradient-3" x1="118.7" y1="116.06" x2="77.37" y2="353.39" xlink:href="#linear-gradient-2"/><linearGradient id="linear-gradient-4" x1="655.96" y1="52.98" x2="692.13" y2="326.48" xlink:href="#linear-gradient-2"/></defs><title>landscape3</title><g class="cls-1"><g id="Layer_1" data-name="Layer 1"><path class="cls-2" d="M708.07,139.25l-96,3s-151.49-12-157.49-9-196.15,1.51-196.49,6c-.57,7.42-129,1.5-129,1.5L0,135.43v93.24H750V132.39Z"/><path class="cls-3" d="M750,146.08c-35.21,1.14-72.19,2.94-82.42,3.67-21,1.5-49.5,13.5-49.5,13.5l-30,10.5,52.5,4.5-52.5,12-34.5-4.5-55.5-3,49.5,10.5,25.5,10.5-69,6-37.49,3-157.5,3-49.49-4.5,33-3s-33-6-37.49-6-36-4.5-36-4.5h-57l-84-3,13.49-10.5,30-6,31.5-7.5-21-3-42-3-34.57-3.08,19.58-7.42,103.49-6,19.61-5.39c-33.71-.48-69.11-2.11-69.11-2.11L0,135.43v93.24H750Z"/><polygon class="cls-4" points="220.53 169.67 198.53 161.67 192.53 148.67 178.53 138.67 151.53 141.67 124.53 153.67 103.53 137.67 55.53 116.67 22.53 83.67 0 74.65 0 183.67 238.84 183.67 220.53 169.67"/><polygon class="cls-5" points="218.53 175.33 206.53 173.33 191.87 168 169.2 163.33 139.2 170 110.53 164.67 86.53 162.67 62.53 155.33 87.2 157.33 104.53 158.67 89.2 150 58.53 140.67 23.2 124.67 5.2 92.67 0 86.86 0 183.67 230.71 183.67 218.53 175.33"/><polygon class="cls-4" points="750 183.67 750 27.84 704.53 49.67 679.53 81.67 633.53 107.67 615.53 139.67 595.53 165.67 573.74 183.67 750 183.67"/><polygon class="cls-6" points="578.31 183.67 750 183.67 750 46.19 739.53 73.67 701.53 102.67 684.53 123.67 697.53 113.67 717.53 102.67 695.53 124.67 658.53 145.67 639.53 164.67 600.53 170.67 578.31 183.67"/></g></g></svg>