<svg xmlns="http://www.w3.org/2000/svg" xmlns:xlink="http://www.w3.org/1999/xlink" viewBox="0 0 750 183.67"><defs><style>.cls-1{isolation:isolate;}.cls-2{fill:url(#linear-gradient);}.cls-3{fill:url(#linear-gradient-2);}.cls-4{fill:url(#linear-gradient-3);}.cls-5{fill:url(#linear-gradient-4);}.cls-6{fill:url(#linear-gradient-5);}.cls-7{fill:url(#linear-gradient-6);}.cls-8{fill:url(#linear-gradient-7);}.cls-9{opacity:0.2;mix-blend-mode:multiply;fill:url(#linear-gradient-8);}.cls-10{fill:#f64c50;}.cls-11{fill:url(#linear-gradient-9);}.cls-12{fill:url(#linear-gradient-10);}.cls-13{fill:url(#linear-gradient-11);}.cls-14{fill:url(#linear-gradient-12);}.cls-15{fill:url(#linear-gradient-13);}</style><linearGradient id="linear-gradient" x1="259.27" y1="-67.33" x2="259.27" y2="148.67" gradientUnits="userSpaceOnUse"><stop offset="0" stop-color="#be4449"/><stop offset="0.06" stop-color="#b1424a"/><stop offset="0.27" stop-color="#863d4d"/><stop offset="0.47" stop-color="#65394f"/><stop offset="0.67" stop-color="#4d3551"/><stop offset="0.85" stop-color="#3f3452"/><stop offset="1" stop-color="#3a3352"/></linearGradient><linearGradient id="linear-gradient-2" x1="168.94" y1="-4.74" x2="156.27" y2="56.6" gradientUnits="userSpaceOnUse"><stop offset="0" stop-color="#f64c50"/><stop offset="0.01" stop-color="#f04b50"/><stop offset="0.09" stop-color="#c64651"/><stop offset="0.17" stop-color="#a04151"/><stop offset="0.26" stop-color="#803c51"/><stop offset="0.36" stop-color="#673952"/><stop offset="0.47" stop-color="#533652"/><stop offset="0.59" stop-color="#453452"/><stop offset="0.74" stop-color="#3c3352"/><stop offset="1" stop-color="#3a3352"/></linearGradient><linearGradient id="linear-gradient-3" x1="394.18" y1="4.65" x2="353.18" y2="184.65" xlink:href="#linear-gradient-2"/><linearGradient id="linear-gradient-4" x1="246.39" y1="37.42" x2="211.39" y2="198.42" gradientUnits="userSpaceOnUse"><stop offset="0" stop-color="#483452"/><stop offset="0.04" stop-color="#453350"/><stop offset="0.26" stop-color="#372d49"/><stop offset="0.53" stop-color="#2e2944"/><stop offset="1" stop-color="#2c2843"/></linearGradient><linearGradient id="linear-gradient-5" x1="331.28" y1="60.02" x2="332.28" y2="121.02" xlink:href="#linear-gradient-4"/><linearGradient id="linear-gradient-6" x1="648.53" y1="-45.33" x2="648.53" y2="127.85" xlink:href="#linear-gradient"/><linearGradient id="linear-gradient-7" x1="375" y1="63.67" x2="375" y2="222.67" xlink:href="#linear-gradient"/><linearGradient id="linear-gradient-8" x1="375.83" y1="49.08" x2="373.83" y2="262.08" xlink:href="#linear-gradient-2"/><linearGradient id="linear-gradient-9" x1="118.7" y1="116.06" x2="77.37" y2="353.39" xlink:href="#linear-gradient-2"/><linearGradient id="linear-gradient-10" x1="427.53" y1="108.67" x2="652.61" y2="108.67" xlink:href="#linear-gradient-4"/><linearGradient id="linear-gradient-11" x1="529.12" y1="42.55" x2="524.12" y2="232.55" gradientUnits="userSpaceOnUse"><stop offset="0" stop-color="#f64c50"/><stop offset="0.22" stop-color="#c24551"/><stop offset="0.49" stop-color="#883d51"/><stop offset="0.71" stop-color="#5e3852"/><stop offset="0.89" stop-color="#443452"/><stop offset="1" stop-color="#3a3352"/></linearGradient><linearGradient id="linear-gradient-12" x1="541.84" y1="40.2" x2="501.26" y2="218.33" xlink:href="#linear-gradient-2"/><linearGradient id="linear-gradient-13" x1="655.96" y1="52.98" x2="692.13" y2="326.48" xlink:href="#linear-gradient-2"/></defs><title>landscape</title><g class="cls-1"><g id="Layer_1" data-name="Layer 1"><polygon class="cls-2" points="384.53 44.67 362.53 35.67 349.53 34.67 317.53 47.67 296.53 56.67 275.53 61.67 223.53 42.67 175.53 8.67 156.53 2.67 115.53 22.67 88.53 42.67 60.53 51.67 21.53 63.67 0 65.51 0 119.02 518.53 110.67 461.53 85.67 421.53 69.67 384.53 44.67"/><polygon class="cls-3" points="95.87 37.33 117.87 30 129.2 24.67 142.53 19.33 137.2 29.33 143.2 28.67 160.53 28 177.2 30 165.87 24 153.2 20.67 171.2 22.67 183.87 28 207.2 37.33 223.53 42.67 198.53 24 177.87 8.67 154.53 0 129.87 14.67 107.87 28 95.87 37.33"/><polygon class="cls-4" points="291.2 58.67 324.53 53.33 344.53 46.67 360.53 46 346.53 43.33 357.87 40.67 373.2 46.67 402.53 65.33 415.2 72.67 403.2 78 381.2 82 364.53 85.33 393.87 85.33 419.2 82 439.2 82.67 465.87 88 423.87 68.67 367.2 36 350.53 32 312.53 50 291.2 58.67"/><path class="cls-5" d="M474.91,91.53l-13.38-5.86-1.24-.5L429.2,86l-31.33-1.33L360.53,78l-24.66,7.33-36,1.34-21.34-3.34-16.66-2.66L272.53,86l-14,.67-11.33-6-14.67,8-34,2.66s-34.66-3.33-36.66-4-40.67-2.66-40.67-2.66l-32-8L65.2,74,33.87,80.67,44.53,70,61.87,60l10-12L60.53,51.67l-39,12L0,65.51V119l462.62-7.45C465.58,106.55,471.06,97.71,474.91,91.53Z"/><polygon class="cls-6" points="286.53 64.67 307.03 72.67 317.53 79.17 335.53 82.67 354.03 87.17 376.53 86.17 353.03 83.17 330.53 76.17 317.53 76.17 307.03 70.17 286.53 64.67"/><polygon class="cls-7" points="739.87 105.33 730.53 100 714.53 89.33 701.87 83.33 687.87 86 674.53 88 657.2 81.33 640.53 72 629.2 72.67 611.87 83.33 597.2 92 576.53 97.33 557.2 104.67 568.22 104.17 573.2 107.33 587.87 107.33 601.87 109.33 625.87 108 637.87 108 647.87 108 654.53 109.33 659.87 107.33 685.87 106 697.2 108.67 709.2 106 720.43 104.53 739.87 105.33"/><path class="cls-8" d="M708.07,94.25l-96,3s-151.49-12-157.49-9-196.15,1.51-196.49,6c-.57,7.42-129,1.5-129,1.5L0,90.43v93.24H750V87.39Z"/><path class="cls-9" d="M750,101.08c-35.21,1.14-72.19,2.94-82.42,3.67-21,1.5-49.5,13.5-49.5,13.5l-30,10.5,52.5,4.5-52.5,12-34.5-4.5-55.5-3,49.5,10.5,25.5,10.5-69,6-37.49,3-157.5,3-49.49-4.5,33-3s-33-6-37.49-6-36-4.5-36-4.5h-57l-84-3,13.49-10.5,30-6,31.5-7.5-21-3-42-3-34.57-3.08,19.58-7.42,103.49-6,19.61-5.39c-33.71-.48-69.11-2.11-69.11-2.11L0,90.43v93.24H750Z"/><polygon class="cls-10" points="220.53 169.67 198.53 161.67 192.53 148.67 178.53 138.67 151.53 141.67 124.53 153.67 103.53 137.67 55.53 116.67 22.53 83.67 0 74.65 0 183.67 238.84 183.67 220.53 169.67"/><polygon class="cls-11" points="218.53 175.33 206.53 173.33 191.87 168 169.2 163.33 139.2 170 110.53 164.67 86.53 162.67 62.53 155.33 87.2 157.33 104.53 158.67 89.2 150 58.53 140.67 23.2 124.67 5.2 92.67 0 86.86 0 183.67 230.71 183.67 218.53 175.33"/><path class="cls-12" d="M451.53,100.67c-.5-1.5-24,3.5-24,3.5l22.5,5,37,2,35,6.5,56.5-3,31.5-4.5s41,1,42.5,1.5-20-7-20-7l-24-3.5s-84,.5-86.5.5-53-2-54.5-2S451.53,100.67,451.53,100.67Z"/><polygon class="cls-13" points="618.87 103.33 609.53 98 593.53 87.33 580.87 81.33 566.87 84 553.53 86 536.2 79.33 519.53 70 508.2 70.67 490.87 81.33 476.2 90 455.53 95.33 436.2 102.67 447.22 102.17 452.2 105.33 466.87 105.33 480.87 107.33 504.87 106 516.87 106 526.87 106 533.53 107.33 538.87 105.33 564.87 104 576.2 106.67 588.2 104 599.43 102.53 618.87 103.33"/><path class="cls-14" d="M597,95.67l-15-9-7-2,3.5,4,5,2.5,2,4-8-2.5L567,91.17l-12.5,4.5-9.5-2-16.5-8.5-10.5-10-9-2-15.5,12.5,2.5-5-7.5,6s-8.5,6-10,6c-.71,0-6.21-.12-11.76-.24l-11.24,2.9-19.33,7.34,11-.5,5,3.16h14.67l14,2,24-1.33h22l6.66,1.33,5.34-2,26-1.33,11.33,2.67,12-2.67,11.23-1.47,19.44.8Z"/><polygon class="cls-10" points="750 183.67 750 27.84 704.53 49.67 679.53 81.67 633.53 107.67 615.53 139.67 595.53 165.67 573.74 183.67 750 183.67"/><polygon class="cls-15" points="578.31 183.67 750 183.67 750 46.19 739.53 73.67 701.53 102.67 684.53 123.67 697.53 113.67 717.53 102.67 695.53 124.67 658.53 145.67 639.53 164.67 600.53 170.67 578.31 183.67"/></g></g></svg>