<?xml version="1.0" encoding="UTF-8"?>
<svg width="484px" height="50px" viewBox="0 0 484 50" version="1.1" xmlns="http://www.w3.org/2000/svg" xmlns:xlink="http://www.w3.org/1999/xlink">
    <!-- Generator: Sketch 52.5 (67469) - http://www.bohemiancoding.com/sketch -->
    <title>CRAIG MELVILLE</title>
    <desc>Created with Sketch.</desc>
    <g id="Page-1" stroke="none" stroke-width="1" fill="none" fill-rule="evenodd">
        <g id="Bubbles-Floating-Around" transform="translate(-451.000000, -101.000000)" fill="#FFFFFF">
            <path d="M451.5,101.5 L486.5,101.5 L486.5,108.5 L458.5,108.5 L458.5,143.5 L486.5,143.5 L486.5,150.5 L451.5,150.5 L451.5,101.5 Z M521.5,108.5 L500.5,108.5 L500.5,129.5 L521.5,129.5 L521.5,108.5 Z M500.5,136.5 L500.5,150.5 L493.5,150.5 L493.5,101.5 L528.5,101.5 L528.5,136.5 L521.5,136.5 L521.5,150.5 L514.5,150.5 L514.5,136.5 L500.5,136.5 Z M563.5,108.5 L542.5,108.5 L542.5,129.5 L563.5,129.5 L563.5,108.5 Z M535.5,150.5 L535.5,101.5 L570.5,101.5 L570.5,150.5 L563.5,150.5 L563.5,136.5 L542.5,136.5 L542.5,150.5 L535.5,150.5 Z M577.5,150.5 L577.5,101.5 L584.5,101.5 L584.5,150.5 L577.5,150.5 Z M591.5,101.5 L609,101.5 L609,108.5 L598.5,108.5 L598.5,143.5 L619.5,143.5 L619.5,136.5 L609,136.5 L609,129.5 L626.5,129.5 L626.5,150.5 L591.5,150.5 L591.5,101.5 Z M647.5,101.5 L682.5,101.5 L682.5,150.5 L675.5,150.5 L675.5,108.5 L668.5,108.5 L668.5,122.5 L661.5,122.5 L661.5,108.5 L654.5,108.5 L654.5,150.5 L647.5,150.5 L647.5,101.5 Z M689.5,101.5 L724.5,101.5 L724.5,108.5 L696.5,108.5 L696.5,129.5 L707,129.5 L707,136.5 L696.5,136.5 L696.5,143.5 L724.5,143.5 L724.5,150.5 L689.5,150.5 L689.5,101.5 Z M738.5,101.5 L738.5,143.5 L766.5,143.5 L766.5,150.5 L731.5,150.5 L731.5,101.5 L738.5,101.5 Z M794.5,101.5 L794.5,150.5 L773.5,150.5 L773.5,101.5 L780.5,101.5 L780.5,143.5 L787.5,143.5 L787.5,101.5 L794.5,101.5 Z M801.5,150.5 L801.5,101.5 L808.5,101.5 L808.5,150.5 L801.5,150.5 Z M822.5,101.5 L822.5,143.5 L850.5,143.5 L850.5,150.5 L815.5,150.5 L815.5,101.5 L822.5,101.5 Z M864.5,101.5 L864.5,143.5 L892.5,143.5 L892.5,150.5 L857.5,150.5 L857.5,101.5 L864.5,101.5 Z M899.5,101.5 L934.5,101.5 L934.5,108.5 L906.5,108.5 L906.5,129.5 L917,129.5 L917,136.5 L906.5,136.5 L906.5,143.5 L934.5,143.5 L934.5,150.5 L899.5,150.5 L899.5,101.5 Z" id="CRAIG-MELVILLE"></path>
        </g>
    </g>
</svg>