<svg id="Layer_1" data-name="Layer 1" xmlns="http://www.w3.org/2000/svg" viewBox="0 0 348.35 71.57"><defs><style>.cls-1{opacity:0.5;}.cls-2{fill:#fff;stroke:#fff;stroke-miterlimit:10;stroke-width:0.5px;}</style></defs><title>logo-bg</title><g class="cls-1"><line class="cls-2" x1="71.4" y1="0.18" x2="0.18" y2="71.4"/><line class="cls-2" x1="81.65" y1="0.18" x2="10.43" y2="71.4"/><line class="cls-2" x1="91.9" y1="0.18" x2="20.68" y2="71.4"/><line class="cls-2" x1="102.15" y1="0.18" x2="30.93" y2="71.4"/><line class="cls-2" x1="112.4" y1="0.18" x2="41.18" y2="71.4"/><line class="cls-2" x1="122.65" y1="0.18" x2="51.43" y2="71.4"/><line class="cls-2" x1="132.9" y1="0.18" x2="61.68" y2="71.4"/><line class="cls-2" x1="143.15" y1="0.18" x2="71.93" y2="71.4"/><line class="cls-2" x1="153.4" y1="0.18" x2="82.19" y2="71.4"/><line class="cls-2" x1="163.66" y1="0.18" x2="92.44" y2="71.4"/><line class="cls-2" x1="173.91" y1="0.18" x2="102.69" y2="71.4"/><line class="cls-2" x1="184.16" y1="0.18" x2="112.94" y2="71.4"/><line class="cls-2" x1="194.41" y1="0.18" x2="123.19" y2="71.4"/><line class="cls-2" x1="204.66" y1="0.18" x2="133.44" y2="71.4"/><line class="cls-2" x1="214.91" y1="0.18" x2="143.69" y2="71.4"/><line class="cls-2" x1="225.16" y1="0.18" x2="153.94" y2="71.4"/><line class="cls-2" x1="235.41" y1="0.18" x2="164.2" y2="71.4"/><line class="cls-2" x1="245.67" y1="0.18" x2="174.45" y2="71.4"/><line class="cls-2" x1="255.92" y1="0.18" x2="184.7" y2="71.4"/><line class="cls-2" x1="266.17" y1="0.18" x2="194.95" y2="71.4"/><line class="cls-2" x1="276.42" y1="0.18" x2="205.2" y2="71.4"/><line class="cls-2" x1="286.67" y1="0.18" x2="215.45" y2="71.4"/><line class="cls-2" x1="296.92" y1="0.18" x2="225.7" y2="71.4"/><line class="cls-2" x1="307.17" y1="0.18" x2="235.95" y2="71.4"/><line class="cls-2" x1="317.42" y1="0.18" x2="246.2" y2="71.4"/><line class="cls-2" x1="327.67" y1="0.18" x2="256.46" y2="71.4"/><line class="cls-2" x1="337.93" y1="0.18" x2="266.71" y2="71.4"/><line class="cls-2" x1="348.18" y1="0.18" x2="276.96" y2="71.4"/></g><g class="cls-1"><line class="cls-2" x1="388.68" y1="70.64" x2="287.96" y2="70.64"/><line class="cls-2" x1="395.93" y1="63.39" x2="295.21" y2="63.39"/><line class="cls-2" x1="403.18" y1="56.15" x2="302.46" y2="56.15"/><line class="cls-2" x1="410.42" y1="48.9" x2="309.71" y2="48.9"/><line class="cls-2" x1="417.67" y1="41.65" x2="316.96" y2="41.65"/><line class="cls-2" x1="424.92" y1="34.4" x2="324.2" y2="34.4"/><line class="cls-2" x1="432.17" y1="27.15" x2="331.45" y2="27.15"/><line class="cls-2" x1="439.42" y1="19.9" x2="338.7" y2="19.9"/><line class="cls-2" x1="446.67" y1="12.65" x2="345.95" y2="12.65"/></g><g class="cls-1"><line class="cls-2" x1="3.93" y1="58.39" x2="-96.79" y2="58.39"/><line class="cls-2" x1="11.18" y1="51.15" x2="-89.54" y2="51.15"/><line class="cls-2" x1="18.42" y1="43.9" x2="-82.29" y2="43.9"/><line class="cls-2" x1="25.67" y1="36.65" x2="-75.04" y2="36.65"/><line class="cls-2" x1="32.92" y1="29.4" x2="-67.8" y2="29.4"/><line class="cls-2" x1="40.17" y1="22.15" x2="-60.55" y2="22.15"/><line class="cls-2" x1="47.42" y1="14.9" x2="-53.3" y2="14.9"/><line class="cls-2" x1="54.67" y1="7.65" x2="-46.05" y2="7.65"/><line class="cls-2" x1="61.92" y1="0.41" x2="-38.8" y2="0.41"/></g></svg>