<svg id="Layer_1" data-name="Layer 1" xmlns="http://www.w3.org/2000/svg" viewBox="0 0 348.35 71.57"><defs><style>.cls-1{opacity:0.5;}.cls-2{fill:#fff;stroke:#fff;stroke-miterlimit:10;stroke-width:0.5px;}</style></defs><title>logo-bg</title><g class="cls-1"><line class="cls-2" x1="71.4" y1="0.18" x2="0.18" y2="71.4"/><line class="cls-2" x1="81.65" y1="0.18" x2="10.43" y2="71.4"/><line class="cls-2" x1="91.9" y1="0.18" x2="20.68" y2="71.4"/><line class="cls-2" x1="102.15" y1="0.18" x2="30.93" y2="71.4"/><line class="cls-2" x1="112.4" y1="0.18" x2="41.18" y2="71.4"/><line class="cls-2" x1="122.65" y1="0.18" x2="51.43" y2="71.4"/><line class="cls-2" x1="132.9" y1="0.18" x2="61.68" y2="71.4"/><line class="cls-2" x1="143.15" y1="0.18" x2="71.93" y2="71.4"/><line class="cls-2" x1="153.4" y1="0.18" x2="82.19" y2="71.4"/><line class="cls-2" x1="163.66" y1="0.18" x2="92.44" y2="71.4"/><line class="cls-2" x1="173.91" y1="0.18" x2="102.69" y2="71.4"/><line class="cls-2" x1="184.16" y1="0.18" x2="112.94" y2="71.4"/><line class="cls-2" x1="194.41" y1="0.18" x2="123.19" y2="71.4"/><line class="cls-2" x1="204.66" y1="0.18" x2="133.44" y2="71.4"/><line class="cls-2" x1="214.91" y1="0.18" x2="143.69" y2="71.4"/><line class="cls-2" x1="225.16" y1="0.18" x2="153.94" y2="71.4"/><line class="cls-2" x1="235.41" y1="0.18" x2="164.2" y2="71.4"/><line class="cls-2" x1="245.67" y1="0.18" x2="174.45" y2="71.4"/><line class="cls-2" x1="255.92" y1="0.18" x2="184.7" y2="71.4"/><line class="cls-2" x1="266.17" y1="0.18" x2="194.95" y2="71.4"/><line class="cls-2" x1="276.42" y1="0.18" x2="205.2" y2="71.4"/><line class="cls-2" x1="286.67" y1="0.18" x2="215.45" y2="71.4"/><line class="cls-2" x1="296.92" y1="0.18" x2="225.7" y2="71.4"/><line class="cls-2" x1="307.17" y1="0.18" x2="235.95" y2="71.4"/><line class="cls-2" x1="317.42" y1="0.18" x2="246.2" y2="71.4"/><line class="cls-2" x1="327.67" y1="0.18" x2="256.46" y2="71.4"/><line class="cls-2" x1="337.93" y1="0.18" x2="266.71" y2="71.4"/><line class="cls-2" x1="348.18" y1="0.18" x2="276.96" y2="71.4"/></g></svg>