<?xml version="1.0" encoding="UTF-8"?>
<svg width="331px" height="79px" viewBox="0 0 331 79" version="1.1" xmlns="http://www.w3.org/2000/svg" xmlns:xlink="http://www.w3.org/1999/xlink">
    <!-- Generator: Sketch 52.5 (67469) - http://www.bohemiancoding.com/sketch -->
    <title>Combined Shape</title>
    <desc>Created with Sketch.</desc>
    <g id="Page-1" stroke="none" stroke-width="1" fill="none" fill-rule="evenodd">
        <g id="Desktop-HD" transform="translate(-754.000000, -774.000000)" fill="#FFFFFF" fill-rule="nonzero">
            <path d="M903.151173,774 L1070.4781,774 L1085,786 L1085,841 L1070.4781,853 L768.521896,853 L754,841 L754,786 L768.521896,774 L903.151173,774 Z M782,813.55 L782,803 L799.45,803 L799.45,813.55 L782,813.55 Z M782,831 L782,820.55 L802.95,820.55 L806.4,817.05 L806.4,799.55 L802.95,796 L775,796 L775,831 L782,831 Z M817.9,824 L817.9,803 L835.35,803 L835.35,824 L817.9,824 Z M838.85,831 L842.3,827.55 L842.3,799.55 L838.85,796 L814.35,796 L810.9,799.55 L810.9,827.55 L814.35,831 L838.85,831 Z M854.3,813.55 L854.3,803 L871.75,803 L871.75,813.55 L854.3,813.55 Z M878.7,831 L878.7,824 L875.25,820.55 L878.7,817.05 L878.7,799.55 L875.25,796 L847.3,796 L847.3,831 L854.3,831 L854.3,820.55 L864.75,820.55 L868.25,824 L871.75,827.55 L871.75,831 L878.7,831 Z M901.45,831 L901.45,803 L913.6,803 L913.6,796 L882.2,796 L882.2,803 L894.45,803 L894.45,831 L901.45,831 Z M924.1,831 L924.1,817.05 L945.05,817.05 L945.05,810.05 L924.1,810.05 L924.1,803 L946.8,803 L946.8,796 L917.1,796 L917.1,831 L924.1,831 Z M957.3,824 L957.3,803 L974.75,803 L974.75,824 L957.3,824 Z M978.25,831 L981.7,827.55 L981.7,799.55 L978.25,796 L953.75,796 L950.3,799.55 L950.3,827.55 L953.75,831 L978.25,831 Z M986.7,796 L986.7,831 L1016.4,831 L1016.4,824 L993.7,824 L993.7,796 L986.7,796 Z M1026.9,831 L1026.9,796 L1019.9,796 L1019.9,831 L1026.9,831 Z M1038.9,824 L1038.9,803 L1056.35,803 L1056.35,824 L1038.9,824 Z M1059.85,831 L1063.3,827.55 L1063.3,799.55 L1059.85,796 L1035.35,796 L1031.9,799.55 L1031.9,827.55 L1035.35,831 L1059.85,831 Z" id="Combined-Shape"></path>
        </g>
    </g>
</svg>