<?xml version="1.0" encoding="UTF-8"?>
<svg width="1434px" height="1021px" viewBox="0 0 1434 1021" version="1.1" xmlns="http://www.w3.org/2000/svg" xmlns:xlink="http://www.w3.org/1999/xlink">
    <!-- Generator: Sketch 52.5 (67469) - http://www.bohemiancoding.com/sketch -->
    <title>stars</title>
    <desc>Created with Sketch.</desc>
    <g id="Page-1" stroke="none" stroke-width="1" fill="none" fill-rule="evenodd">
        <g id="Desktop-HD-Copy" transform="translate(-1.000000, -1.000000)" fill-rule="nonzero">
            <g id="stars" transform="translate(0.000000, -1.000000)">
                <circle id="Oval_200" fill="#E55956" transform="translate(28.000000, 97.000000) rotate(358.200000) translate(-28.000000, -97.000000) " cx="28" cy="97" r="1"></circle>
                <circle id="Oval_199" fill="#E55956" transform="translate(78.000000, 25.000000) rotate(356.400000) translate(-78.000000, -25.000000) " cx="78" cy="25" r="1"></circle>
                <circle id="Oval_198" fill="#E55956" transform="translate(1273.000000, 639.000000) rotate(354.600000) translate(-1273.000000, -639.000000) " cx="1273" cy="639" r="1"></circle>
                <circle id="Oval_197" fill="#E55956" transform="translate(1245.000000, 230.000000) rotate(352.800000) translate(-1245.000000, -230.000000) " cx="1245" cy="230" r="3"></circle>
                <circle id="Oval_196" fill="#E55956" transform="translate(45.000000, 748.000000) rotate(351.000000) translate(-45.000000, -748.000000) " cx="45" cy="748" r="3"></circle>
                <circle id="Oval_195" fill="#E55956" transform="translate(652.000000, 517.000000) rotate(349.200000) translate(-652.000000, -517.000000) " cx="652" cy="517" r="2"></circle>
                <circle id="Oval_194" fill="#E55956" transform="translate(1363.500000, 902.500000) rotate(347.400000) translate(-1363.500000, -902.500000) " cx="1363.5" cy="902.5" r="1.5"></circle>
                <circle id="Oval_193" fill="#E55956" transform="translate(1186.000000, 300.000000) rotate(345.600000) translate(-1186.000000, -300.000000) " cx="1186" cy="300" r="1"></circle>
                <circle id="Oval_192" fill="#E55956" transform="translate(1076.000000, 975.000000) rotate(343.800000) translate(-1076.000000, -975.000000) " cx="1076" cy="975" r="3"></circle>
                <circle id="Oval_191" fill="#E55956" transform="translate(1179.500000, 478.500000) rotate(342.000000) translate(-1179.500000, -478.500000) " cx="1179.5" cy="478.5" r="1.5"></circle>
                <circle id="Oval_190" fill="#E55956" transform="translate(256.500000, 171.500000) rotate(340.200000) translate(-256.500000, -171.500000) " cx="256.5" cy="171.5" r="1"></circle>
                <circle id="Oval_189" fill="#E55956" transform="translate(1432.500000, 661.500000) rotate(338.400000) translate(-1432.500000, -661.500000) " cx="1432.5" cy="661.5" r="1"></circle>
                <circle id="Oval_188" fill="#E55956" transform="translate(246.000000, 661.000000) rotate(336.600000) translate(-246.000000, -661.000000) " cx="246" cy="661" r="2"></circle>
                <circle id="Oval_187" fill="#E55956" transform="translate(591.500000, 500.500000) rotate(334.800000) translate(-591.500000, -500.500000) " cx="591.5" cy="500.5" r="1.5"></circle>
                <circle id="Oval_186" fill="#E55956" transform="translate(591.000000, 59.000000) rotate(333.000000) translate(-591.000000, -59.000000) " cx="591" cy="59" r="1"></circle>
                <circle id="Oval_185" fill="#E55956" transform="translate(645.000000, 229.000000) rotate(331.200000) translate(-645.000000, -229.000000) " cx="645" cy="229" r="3"></circle>
                <circle id="Oval_184" fill="#E55956" transform="translate(1143.000000, 7.000000) rotate(329.400000) translate(-1143.000000, -7.000000) " cx="1143" cy="7" r="3"></circle>
                <circle id="Oval_183" fill="#E55956" transform="translate(77.000000, 423.000000) rotate(327.600000) translate(-77.000000, -423.000000) " cx="77" cy="423" r="3"></circle>
                <circle id="Oval_182" fill="#E55956" transform="translate(776.000000, 554.000000) rotate(325.800000) translate(-776.000000, -554.000000) " cx="776" cy="554" r="2"></circle>
                <circle id="Oval_181" fill="#E55956" transform="translate(344.000000, 255.000000) rotate(324.000000) translate(-344.000000, -255.000000) " cx="344" cy="255" r="2"></circle>
                <circle id="Oval_180" fill="#E55956" transform="translate(1149.000000, 649.000000) rotate(322.200000) translate(-1149.000000, -649.000000) " cx="1149" cy="649" r="1"></circle>
                <circle id="Oval_179" fill="#E55956" transform="translate(314.500000, 537.500000) rotate(320.400000) translate(-314.500000, -537.500000) " cx="314.5" cy="537.5" r="1"></circle>
                <circle id="Oval_178" fill="#E55956" transform="translate(1023.500000, 77.500000) rotate(318.600000) translate(-1023.500000, -77.500000) " cx="1023.5" cy="77.5" r="1"></circle>
                <circle id="Oval_177" fill="#E55956" transform="translate(1344.000000, 243.000000) rotate(316.800000) translate(-1344.000000, -243.000000) " cx="1344" cy="243" r="1"></circle>
                <circle id="Oval_176" fill="#E55956" transform="translate(198.000000, 725.000000) rotate(315.000000) translate(-198.000000, -725.000000) " cx="198" cy="725" r="3"></circle>
                <circle id="Oval_175" fill="#E55956" transform="translate(630.000000, 5.000000) rotate(313.200000) translate(-630.000000, -5.000000) " cx="630" cy="5" r="3"></circle>
                <circle id="Oval_174" fill="#E55956" transform="translate(63.500000, 316.500000) rotate(311.400000) translate(-63.500000, -316.500000) " cx="63.5" cy="316.5" r="2.5"></circle>
                <circle id="Oval_173" fill="#E55956" transform="translate(1289.500000, 52.500000) rotate(309.600000) translate(-1289.500000, -52.500000) " cx="1289.5" cy="52.5" r="2.5"></circle>
                <circle id="Oval_172" fill="#E55956" transform="translate(272.000000, 835.000000) rotate(307.800000) translate(-272.000000, -835.000000) " cx="272" cy="835" r="1"></circle>
                <circle id="Oval_171" fill="#E55956" transform="translate(1181.500000, 700.500000) rotate(306.000000) translate(-1181.500000, -700.500000) " cx="1181.5" cy="700.5" r="2.5"></circle>
                <circle id="Oval_170" fill="#E55956" transform="translate(162.000000, 933.000000) rotate(304.200000) translate(-162.000000, -933.000000) " cx="162" cy="933" r="1"></circle>
                <circle id="Oval_169" fill="#E55956" transform="translate(264.000000, 267.000000) rotate(302.400000) translate(-264.000000, -267.000000) " cx="264" cy="267" r="2"></circle>
                <circle id="Oval_168" fill="#E55956" transform="translate(355.000000, 647.000000) rotate(300.600000) translate(-355.000000, -647.000000) " cx="355" cy="647" r="1"></circle>
                <circle id="Oval_167" fill="#E55956" transform="translate(613.000000, 719.000000) rotate(298.800000) translate(-613.000000, -719.000000) " cx="613" cy="719" r="1"></circle>
                <circle id="Oval_166" fill="#E55956" transform="translate(252.000000, 594.000000) rotate(297.000000) translate(-252.000000, -594.000000) " cx="252" cy="594" r="1"></circle>
                <circle id="Oval_165" fill="#E55956" transform="translate(982.000000, 68.000000) rotate(295.200000) translate(-982.000000, -68.000000) " cx="982" cy="68" r="1"></circle>
                <circle id="Oval_164" fill="#E55956" transform="translate(1314.500000, 116.500000) rotate(293.400000) translate(-1314.500000, -116.500000) " cx="1314.5" cy="116.5" r="1"></circle>
                <circle id="Oval_163" fill="#E55956" transform="translate(283.000000, 410.000000) rotate(291.600000) translate(-283.000000, -410.000000) " cx="283" cy="410" r="2"></circle>
                <circle id="Oval_162" fill="#E55956" transform="translate(355.500000, 771.500000) rotate(289.800000) translate(-355.500000, -771.500000) " cx="355.5" cy="771.5" r="1"></circle>
                <circle id="Oval_161" fill="#E55956" transform="translate(1001.000000, 321.000000) rotate(288.000000) translate(-1001.000000, -321.000000) " cx="1001" cy="321" r="1"></circle>
                <circle id="Oval_160" fill="#E55956" transform="translate(653.000000, 291.000000) rotate(286.200000) translate(-653.000000, -291.000000) " cx="653" cy="291" r="1"></circle>
                <circle id="Oval_159" fill="#E55956" transform="translate(684.500000, 221.500000) rotate(284.400000) translate(-684.500000, -221.500000) " cx="684.5" cy="221.5" r="1"></circle>
                <circle id="Oval_158" fill="#E55956" transform="translate(830.000000, 235.000000) rotate(282.600000) translate(-830.000000, -235.000000) " cx="830" cy="235" r="1"></circle>
                <circle id="Oval_157" fill="#E55956" transform="translate(730.000000, 45.000000) rotate(280.800000) translate(-730.000000, -45.000000) " cx="730" cy="45" r="1"></circle>
                <circle id="Oval_156" fill="#E55956" transform="translate(1292.000000, 545.000000) rotate(279.000000) translate(-1292.000000, -545.000000) " cx="1292" cy="545" r="1"></circle>
                <circle id="Oval_155" fill="#E55956" transform="translate(23.500000, 371.500000) rotate(277.200000) translate(-23.500000, -371.500000) " cx="23.5" cy="371.5" r="2.5"></circle>
                <circle id="Oval_154" fill="#E55956" transform="translate(1403.500000, 948.500000) rotate(275.400000) translate(-1403.500000, -948.500000) " cx="1403.5" cy="948.5" r="2.5"></circle>
                <circle id="Oval_153" fill="#E55956" transform="translate(980.000000, 197.000000) rotate(273.600000) translate(-980.000000, -197.000000) " cx="980" cy="197" r="1"></circle>
                <circle id="Oval_152" fill="#E55956" transform="translate(869.000000, 816.000000) rotate(271.800000) translate(-869.000000, -816.000000) " cx="869" cy="816" r="1"></circle>
                <circle id="Oval_151" fill="#E55956" transform="translate(980.500000, 527.500000) rotate(270.000000) translate(-980.500000, -527.500000) " cx="980.5" cy="527.5" r="1.5"></circle>
                <circle id="Oval_150" fill="#E55956" transform="translate(1134.500000, 533.500000) rotate(268.200000) translate(-1134.500000, -533.500000) " cx="1134.5" cy="533.5" r="2.5"></circle>
                <circle id="Oval_149" fill="#E55956" transform="translate(1039.000000, 596.000000) rotate(266.400000) translate(-1039.000000, -596.000000) " cx="1039" cy="596" r="3"></circle>
                <circle id="Oval_148" fill="#E55956" transform="translate(74.500000, 180.500000) rotate(264.600000) translate(-74.500000, -180.500000) " cx="74.5" cy="180.5" r="1"></circle>
                <circle id="Oval_147" fill="#E55956" transform="translate(100.500000, 805.500000) rotate(262.800000) translate(-100.500000, -805.500000) " cx="100.5" cy="805.5" r="2.5"></circle>
                <circle id="Oval_146" fill="#E55956" transform="translate(405.000000, 642.000000) rotate(261.000000) translate(-405.000000, -642.000000) " cx="405" cy="642" r="1"></circle>
                <circle id="Oval_145" fill="#E55956" transform="translate(562.000000, 467.000000) rotate(259.200000) translate(-562.000000, -467.000000) " cx="562" cy="467" r="1"></circle>
                <circle id="Oval_144" fill="#E55956" transform="translate(867.000000, 94.000000) rotate(257.400000) translate(-867.000000, -94.000000) " cx="867" cy="94" r="1"></circle>
                <circle id="Oval_143" fill="#E55956" transform="translate(832.500000, 1010.500000) rotate(255.600000) translate(-832.500000, -1010.500000) " cx="832.5" cy="1010.5" r="1.5"></circle>
                <circle id="Oval_142" fill="#E55956" transform="translate(93.000000, 123.000000) rotate(253.800000) translate(-93.000000, -123.000000) " cx="93" cy="123" r="1"></circle>
                <circle id="Oval_141" fill="#E55956" transform="translate(287.500000, 617.500000) rotate(252.000000) translate(-287.500000, -617.500000) " cx="287.5" cy="617.5" r="1"></circle>
                <circle id="Oval_140" fill="#E55956" transform="translate(1234.500000, 413.500000) rotate(250.200000) translate(-1234.500000, -413.500000) " cx="1234.5" cy="413.5" r="1"></circle>
                <circle id="Oval_139" fill="#E55956" transform="translate(475.000000, 957.000000) rotate(248.400000) translate(-475.000000, -957.000000) " cx="475" cy="957" r="2"></circle>
                <circle id="Oval_138" fill="#E55956" transform="translate(1357.500000, 662.500000) rotate(246.600000) translate(-1357.500000, -662.500000) " cx="1357.5" cy="662.5" r="1.5"></circle>
                <circle id="Oval_137" fill="#E55956" transform="translate(358.500000, 231.500000) rotate(244.800000) translate(-358.500000, -231.500000) " cx="358.5" cy="231.5" r="2.5"></circle>
                <circle id="Oval_136" fill="#E55956" transform="translate(345.500000, 428.500000) rotate(243.000000) translate(-345.500000, -428.500000) " cx="345.5" cy="428.5" r="1"></circle>
                <circle id="Oval_135" fill="#E55956" transform="translate(125.500000, 404.500000) rotate(241.200000) translate(-125.500000, -404.500000) " cx="125.5" cy="404.5" r="1"></circle>
                <circle id="Oval_134" fill="#E55956" transform="translate(932.000000, 541.000000) rotate(239.400000) translate(-932.000000, -541.000000) " cx="932" cy="541" r="1"></circle>
                <circle id="Oval_133" fill="#E55956" transform="translate(312.000000, 321.000000) rotate(237.600000) translate(-312.000000, -321.000000) " cx="312" cy="321" r="1"></circle>
                <circle id="Oval_132" fill="#E55956" transform="translate(1121.000000, 147.000000) rotate(235.800000) translate(-1121.000000, -147.000000) " cx="1121" cy="147" r="2"></circle>
                <circle id="Oval_131" fill="#E55956" transform="translate(1031.500000, 402.500000) rotate(234.000000) translate(-1031.500000, -402.500000) " cx="1031.5" cy="402.5" r="1.5"></circle>
                <circle id="Oval_130" fill="#E55956" transform="translate(1166.500000, 319.500000) rotate(232.200000) translate(-1166.500000, -319.500000) " cx="1166.5" cy="319.5" r="1.5"></circle>
                <circle id="Oval_129" fill="#E55956" transform="translate(664.500000, 39.500000) rotate(230.400000) translate(-664.500000, -39.500000) " cx="664.5" cy="39.5" r="1.5"></circle>
                <circle id="Oval_128" fill="#E55956" transform="translate(594.000000, 136.000000) rotate(228.600000) translate(-594.000000, -136.000000) " cx="594" cy="136" r="1"></circle>
                <circle id="Oval_127" fill="#E55956" transform="translate(1429.500000, 178.500000) rotate(226.800000) translate(-1429.500000, -178.500000) " cx="1429.5" cy="178.5" r="1"></circle>
                <circle id="Oval_126" fill="#E55956" transform="translate(271.000000, 134.000000) rotate(225.000000) translate(-271.000000, -134.000000) " cx="271" cy="134" r="1"></circle>
                <circle id="Oval_125" fill="#E55956" transform="translate(1051.000000, 883.000000) rotate(223.200000) translate(-1051.000000, -883.000000) " cx="1051" cy="883" r="3"></circle>
                <circle id="Oval_124" fill="#E55956" transform="translate(925.000000, 93.000000) rotate(221.400000) translate(-925.000000, -93.000000) " cx="925" cy="93" r="3"></circle>
                <circle id="Oval_123" fill="#E55956" transform="translate(1290.500000, 947.500000) rotate(219.600000) translate(-1290.500000, -947.500000) " cx="1290.5" cy="947.5" r="1"></circle>
                <circle id="Oval_122" fill="#E55956" transform="translate(647.000000, 556.000000) rotate(217.800000) translate(-647.000000, -556.000000) " cx="647" cy="556" r="1"></circle>
                <circle id="Oval_121" fill="#E55956" transform="translate(1330.500000, 239.500000) rotate(216.000000) translate(-1330.500000, -239.500000) " cx="1330.5" cy="239.5" r="1"></circle>
                <circle id="Oval_120" fill="#E55956" transform="translate(543.000000, 893.000000) rotate(214.200000) translate(-543.000000, -893.000000) " cx="543" cy="893" r="1"></circle>
                <circle id="Oval_119" fill="#E55956" transform="translate(756.000000, 487.000000) rotate(212.400000) translate(-756.000000, -487.000000) " cx="756" cy="487" r="2"></circle>
                <circle id="Oval_118" fill="#E55956" transform="translate(235.000000, 465.000000) rotate(210.600000) translate(-235.000000, -465.000000) " cx="235" cy="465" r="2"></circle>
                <circle id="Oval_117" fill="#E55956" transform="translate(1111.500000, 803.500000) rotate(208.800000) translate(-1111.500000, -803.500000) " cx="1111.5" cy="803.5" r="1.5"></circle>
                <circle id="Oval_116" fill="#E55956" transform="translate(793.500000, 710.500000) rotate(207.000000) translate(-793.500000, -710.500000) " cx="793.5" cy="710.5" r="1.5"></circle>
                <circle id="Oval_115" fill="#E55956" transform="translate(1006.000000, 499.000000) rotate(205.200000) translate(-1006.000000, -499.000000) " cx="1006" cy="499" r="2"></circle>
                <circle id="Oval_114" fill="#E55956" transform="translate(1071.500000, 688.500000) rotate(203.400000) translate(-1071.500000, -688.500000) " cx="1071.5" cy="688.5" r="1.5"></circle>
                <circle id="Oval_113" fill="#E55956" transform="translate(996.500000, 272.500000) rotate(201.600000) translate(-996.500000, -272.500000) " cx="996.5" cy="272.5" r="1"></circle>
                <circle id="Oval_112" fill="#E55956" transform="translate(508.500000, 967.500000) rotate(199.800000) translate(-508.500000, -967.500000) " cx="508.5" cy="967.5" r="1"></circle>
                <circle id="Oval_111" fill="#E55956" transform="translate(1288.000000, 928.000000) rotate(198.000000) translate(-1288.000000, -928.000000) " cx="1288" cy="928" r="1"></circle>
                <circle id="Oval_110" fill="#E55956" transform="translate(186.500000, 514.500000) rotate(196.200000) translate(-186.500000, -514.500000) " cx="186.5" cy="514.5" r="1"></circle>
                <circle id="Oval_109" fill="#E55956" transform="translate(395.000000, 220.000000) rotate(194.400000) translate(-395.000000, -220.000000) " cx="395" cy="220" r="2"></circle>
                <circle id="Oval_108" fill="#E55956" transform="translate(1180.000000, 153.000000) rotate(192.600000) translate(-1180.000000, -153.000000) " cx="1180" cy="153" r="1"></circle>
                <circle id="Oval_107" fill="#E55956" transform="translate(595.500000, 699.500000) rotate(190.800000) translate(-595.500000, -699.500000) " cx="595.5" cy="699.5" r="1.5"></circle>
                <circle id="Oval_106" fill="#E55956" transform="translate(850.500000, 315.500000) rotate(189.000000) translate(-850.500000, -315.500000) " cx="850.5" cy="315.5" r="1.5"></circle>
                <circle id="Oval_105" fill="#E55956" transform="translate(740.500000, 576.500000) rotate(187.200000) translate(-740.500000, -576.500000) " cx="740.5" cy="576.5" r="2.5"></circle>
                <circle id="Oval_104" fill="#E55956" transform="translate(1030.000000, 523.000000) rotate(185.400000) translate(-1030.000000, -523.000000) " cx="1030" cy="523" r="1"></circle>
                <circle id="Oval_103" fill="#E55956" transform="translate(1355.000000, 757.000000) rotate(183.600000) translate(-1355.000000, -757.000000) " cx="1355" cy="757" r="1"></circle>
                <circle id="Oval_102" fill="#E55956" transform="translate(522.000000, 535.000000) rotate(181.800000) translate(-522.000000, -535.000000) " cx="522" cy="535" r="1"></circle>
                <circle id="Oval_101" fill="#E55956" transform="translate(662.000000, 450.000000) rotate(180.000000) translate(-662.000000, -450.000000) " cx="662" cy="450" r="1"></circle>
                <circle id="Oval_100" fill="#E55956" transform="translate(349.500000, 742.500000) rotate(178.200000) translate(-349.500000, -742.500000) " cx="349.5" cy="742.5" r="2.5"></circle>
                <circle id="Oval_99" fill="#E55956" transform="translate(626.500000, 1014.500000) rotate(176.400000) translate(-626.500000, -1014.500000) " cx="626.5" cy="1014.5" r="1"></circle>
                <circle id="Oval_98" fill="#E55956" transform="translate(470.500000, 249.500000) rotate(174.600000) translate(-470.500000, -249.500000) " cx="470.5" cy="249.5" r="1"></circle>
                <circle id="Oval_97" fill="#E55956" transform="translate(81.500000, 864.500000) rotate(172.800000) translate(-81.500000, -864.500000) " cx="81.5" cy="864.5" r="1"></circle>
                <circle id="Oval_96" fill="#E55956" transform="translate(228.500000, 1008.500000) rotate(171.000000) translate(-228.500000, -1008.500000) " cx="228.5" cy="1008.5" r="1"></circle>
                <circle id="Oval_95" fill="#E55956" transform="translate(1089.500000, 900.500000) rotate(169.200000) translate(-1089.500000, -900.500000) " cx="1089.5" cy="900.5" r="1"></circle>
                <circle id="Oval_94" fill="#E55956" transform="translate(887.000000, 880.000000) rotate(167.400000) translate(-887.000000, -880.000000) " cx="887" cy="880" r="3"></circle>
                <circle id="Oval_93" fill="#E55956" transform="translate(1119.500000, 105.500000) rotate(165.600000) translate(-1119.500000, -105.500000) " cx="1119.5" cy="105.5" r="2.5"></circle>
                <circle id="Oval_92" fill="#E55956" transform="translate(759.000000, 340.000000) rotate(163.800000) translate(-759.000000, -340.000000) " cx="759" cy="340" r="3"></circle>
                <circle id="Oval_91" fill="#E55956" transform="translate(298.000000, 217.000000) rotate(162.000000) translate(-298.000000, -217.000000) " cx="298" cy="217" r="3"></circle>
                <circle id="Oval_90" fill="#E55956" transform="translate(290.000000, 571.000000) rotate(160.200000) translate(-290.000000, -571.000000) " cx="290" cy="571" r="1"></circle>
                <circle id="Oval_89" fill="#E55956" transform="translate(1353.500000, 684.500000) rotate(158.400000) translate(-1353.500000, -684.500000) " cx="1353.5" cy="684.5" r="2.5"></circle>
                <circle id="Oval_88" fill="#E55956" transform="translate(934.500000, 993.500000) rotate(156.600000) translate(-934.500000, -993.500000) " cx="934.5" cy="993.5" r="1.5"></circle>
                <circle id="Oval_87" fill="#E55956" transform="translate(394.000000, 620.000000) rotate(154.800000) translate(-394.000000, -620.000000) " cx="394" cy="620" r="1"></circle>
                <circle id="Oval_86" fill="#E55956" transform="translate(1192.500000, 570.500000) rotate(153.000000) translate(-1192.500000, -570.500000) " cx="1192.5" cy="570.5" r="1.5"></circle>
                <circle id="Oval_85" fill="#E55956" transform="translate(779.500000, 59.500000) rotate(151.200000) translate(-779.500000, -59.500000) " cx="779.5" cy="59.5" r="2.5"></circle>
                <circle id="Oval_84" fill="#E55956" transform="translate(766.500000, 168.500000) rotate(149.400000) translate(-766.500000, -168.500000) " cx="766.5" cy="168.5" r="1.5"></circle>
                <circle id="Oval_83" fill="#E55956" transform="translate(661.500000, 53.500000) rotate(147.600000) translate(-661.500000, -53.500000) " cx="661.5" cy="53.5" r="1"></circle>
                <circle id="Oval_82" fill="#E55956" transform="translate(840.500000, 567.500000) rotate(145.800000) translate(-840.500000, -567.500000) " cx="840.5" cy="567.5" r="1"></circle>
                <circle id="Oval_81" fill="#E55956" transform="translate(1217.000000, 837.000000) rotate(144.000000) translate(-1217.000000, -837.000000) " cx="1217" cy="837" r="1"></circle>
                <circle id="Oval_80" fill="#E55956" transform="translate(1255.500000, 968.500000) rotate(142.200000) translate(-1255.500000, -968.500000) " cx="1255.5" cy="968.5" r="1"></circle>
                <circle id="Oval_79" fill="#E55956" transform="translate(1105.500000, 853.500000) rotate(140.400000) translate(-1105.500000, -853.500000) " cx="1105.5" cy="853.5" r="1"></circle>
                <circle id="Oval_78" fill="#E55956" transform="translate(806.000000, 335.000000) rotate(138.600000) translate(-806.000000, -335.000000) " cx="806" cy="335" r="2"></circle>
                <circle id="Oval_77" fill="#E55956" transform="translate(1432.000000, 56.000000) rotate(136.800000) translate(-1432.000000, -56.000000) " cx="1432" cy="56" r="2"></circle>
                <circle id="Oval_76" fill="#E55956" transform="translate(1111.000000, 697.000000) rotate(135.000000) translate(-1111.000000, -697.000000) " cx="1111" cy="697" r="1"></circle>
                <circle id="Oval_75" fill="#E55956" transform="translate(1400.500000, 517.500000) rotate(133.200000) translate(-1400.500000, -517.500000) " cx="1400.5" cy="517.5" r="1.5"></circle>
                <circle id="Oval_74" fill="#E55956" transform="translate(1021.500000, 50.500000) rotate(131.400000) translate(-1021.500000, -50.500000) " cx="1021.5" cy="50.5" r="2.5"></circle>
                <circle id="Oval_73" fill="#E55956" transform="translate(1376.000000, 439.000000) rotate(129.600000) translate(-1376.000000, -439.000000) " cx="1376" cy="439" r="1"></circle>
                <circle id="Oval_72" fill="#E55956" transform="translate(507.000000, 768.000000) rotate(127.800000) translate(-507.000000, -768.000000) " cx="507" cy="768" r="1"></circle>
                <circle id="Oval_71" fill="#E55956" transform="translate(1430.000000, 88.000000) rotate(126.000000) translate(-1430.000000, -88.000000) " cx="1430" cy="88" r="1"></circle>
                <circle id="Oval_70" fill="#E55956" transform="translate(608.000000, 489.000000) rotate(124.200000) translate(-608.000000, -489.000000) " cx="608" cy="489" r="3"></circle>
                <circle id="Oval_69" fill="#E55956" transform="translate(563.500000, 585.500000) rotate(122.400000) translate(-563.500000, -585.500000) " cx="563.5" cy="585.5" r="2.5"></circle>
                <circle id="Oval_68" fill="#E55956" transform="translate(416.000000, 748.000000) rotate(120.600000) translate(-416.000000, -748.000000) " cx="416" cy="748" r="2"></circle>
                <circle id="Oval_67" fill="#E55956" transform="translate(211.500000, 658.500000) rotate(118.800000) translate(-211.500000, -658.500000) " cx="211.5" cy="658.5" r="1"></circle>
                <circle id="Oval_66" fill="#E55956" transform="translate(552.000000, 92.000000) rotate(117.000000) translate(-552.000000, -92.000000) " cx="552" cy="92" r="2"></circle>
                <circle id="Oval_65" fill="#E55956" transform="translate(1346.000000, 188.000000) rotate(115.200000) translate(-1346.000000, -188.000000) " cx="1346" cy="188" r="1"></circle>
                <circle id="Oval_64" fill="#E55956" transform="translate(91.500000, 158.500000) rotate(113.400000) translate(-91.500000, -158.500000) " cx="91.5" cy="158.5" r="1.5"></circle>
                <circle id="Oval_63" fill="#E55956" transform="translate(930.000000, 867.000000) rotate(111.600000) translate(-930.000000, -867.000000) " cx="930" cy="867" r="1"></circle>
                <circle id="Oval_62" fill="#E55956" transform="translate(768.500000, 352.500000) rotate(109.800000) translate(-768.500000, -352.500000) " cx="768.5" cy="352.5" r="1"></circle>
                <circle id="Oval_61" fill="#E55956" transform="translate(841.000000, 834.000000) rotate(108.000000) translate(-841.000000, -834.000000) " cx="841" cy="834" r="2"></circle>
                <circle id="Oval_60" fill="#E55956" transform="translate(14.000000, 513.000000) rotate(106.200000) translate(-14.000000, -513.000000) " cx="14" cy="513" r="2"></circle>
                <circle id="Oval_59" fill="#E55956" transform="translate(386.000000, 176.000000) rotate(104.400000) translate(-386.000000, -176.000000) " cx="386" cy="176" r="2"></circle>
                <circle id="Oval_58" fill="#E55956" transform="translate(24.000000, 478.000000) rotate(102.600000) translate(-24.000000, -478.000000) " cx="24" cy="478" r="1"></circle>
                <circle id="Oval_57" fill="#E55956" transform="translate(149.000000, 347.000000) rotate(100.800000) translate(-149.000000, -347.000000) " cx="149" cy="347" r="3"></circle>
                <circle id="Oval_56" fill="#E55956" transform="translate(1200.000000, 109.000000) rotate(99.000000) translate(-1200.000000, -109.000000) " cx="1200" cy="109" r="2"></circle>
                <circle id="Oval_55" fill="#E55956" transform="translate(1407.000000, 345.000000) rotate(97.200000) translate(-1407.000000, -345.000000) " cx="1407" cy="345" r="1"></circle>
                <circle id="Oval_54" fill="#E55956" transform="translate(1377.500000, 267.500000) rotate(95.400000) translate(-1377.500000, -267.500000) " cx="1377.5" cy="267.5" r="1.5"></circle>
                <circle id="Oval_53" fill="#E55956" transform="translate(74.500000, 344.500000) rotate(93.600000) translate(-74.500000, -344.500000) " cx="74.5" cy="344.5" r="1.5"></circle>
                <circle id="Oval_52" fill="#E55956" transform="translate(484.500000, 542.500000) rotate(91.800000) translate(-484.500000, -542.500000) " cx="484.5" cy="542.5" r="2.5"></circle>
                <circle id="Oval_51" fill="#E55956" transform="translate(51.000000, 726.000000) rotate(90.000000) translate(-51.000000, -726.000000) " cx="51" cy="726" r="3"></circle>
                <circle id="Oval_50" fill="#E55956" transform="translate(982.500000, 896.500000) rotate(88.200000) translate(-982.500000, -896.500000) " cx="982.5" cy="896.5" r="1"></circle>
                <circle id="Oval_49" fill="#E55956" transform="translate(1275.000000, 76.000000) rotate(86.400000) translate(-1275.000000, -76.000000) " cx="1275" cy="76" r="3"></circle>
                <circle id="Oval_48" fill="#E55956" transform="translate(251.000000, 771.000000) rotate(84.600000) translate(-251.000000, -771.000000) " cx="251" cy="771" r="3"></circle>
                <circle id="Oval_47" fill="#E55956" transform="translate(1153.500000, 740.500000) rotate(82.800000) translate(-1153.500000, -740.500000) " cx="1153.5" cy="740.5" r="2.5"></circle>
                <circle id="Oval_46" fill="#E55956" transform="translate(739.500000, 943.500000) rotate(81.000000) translate(-739.500000, -943.500000) " cx="739.5" cy="943.5" r="1"></circle>
                <circle id="Oval_45" fill="#E55956" transform="translate(573.000000, 7.000000) rotate(79.200000) translate(-573.000000, -7.000000) " cx="573" cy="7" r="1"></circle>
                <circle id="Oval_44" fill="#E55956" transform="translate(1185.000000, 272.000000) rotate(77.400000) translate(-1185.000000, -272.000000) " cx="1185" cy="272" r="1"></circle>
                <circle id="Oval_43" fill="#E55956" transform="translate(229.500000, 23.500000) rotate(75.600000) translate(-229.500000, -23.500000) " cx="229.5" cy="23.5" r="2.5"></circle>
                <circle id="Oval_42" fill="#E55956" transform="translate(1416.000000, 928.000000) rotate(73.800000) translate(-1416.000000, -928.000000) " cx="1416" cy="928" r="1"></circle>
                <circle id="Oval_41" fill="#E55956" transform="translate(23.000000, 667.000000) rotate(72.000000) translate(-23.000000, -667.000000) " cx="23" cy="667" r="3"></circle>
                <circle id="Oval_40" fill="#E55956" transform="translate(1349.000000, 299.000000) rotate(70.200000) translate(-1349.000000, -299.000000) " cx="1349" cy="299" r="3"></circle>
                <circle id="Oval_39" fill="#E55956" transform="translate(396.000000, 578.000000) rotate(68.400000) translate(-396.000000, -578.000000) " cx="396" cy="578" r="3"></circle>
                <circle id="Oval_38" fill="#E55956" transform="translate(500.000000, 31.000000) rotate(66.600000) translate(-500.000000, -31.000000) " cx="500" cy="31" r="1"></circle>
                <circle id="Oval_37" fill="#E55956" transform="translate(1070.000000, 40.000000) rotate(64.800000) translate(-1070.000000, -40.000000) " cx="1070" cy="40" r="1"></circle>
                <circle id="Oval_36" fill="#E55956" transform="translate(1264.000000, 245.000000) rotate(63.000000) translate(-1264.000000, -245.000000) " cx="1264" cy="245" r="1"></circle>
                <circle id="Oval_35" fill="#E55956" transform="translate(790.000000, 267.000000) rotate(61.200000) translate(-790.000000, -267.000000) " cx="790" cy="267" r="1"></circle>
                <circle id="Oval_34" fill="#E55956" transform="translate(1061.000000, 309.000000) rotate(59.400000) translate(-1061.000000, -309.000000) " cx="1061" cy="309" r="1"></circle>
                <circle id="Oval_33" fill="#E55956" transform="translate(1434.000000, 614.000000) rotate(57.600000) translate(-1434.000000, -614.000000) " cx="1434" cy="614" r="1"></circle>
                <circle id="Oval_32" fill="#E55956" transform="translate(1261.000000, 636.000000) rotate(55.800000) translate(-1261.000000, -636.000000) " cx="1261" cy="636" r="1"></circle>
                <circle id="Oval_31" fill="#E55956" transform="translate(279.500000, 843.500000) rotate(54.000000) translate(-279.500000, -843.500000) " cx="279.5" cy="843.5" r="1"></circle>
                <circle id="Oval_30" fill="#E55956" transform="translate(264.500000, 497.500000) rotate(52.200000) translate(-264.500000, -497.500000) " cx="264.5" cy="497.5" r="1"></circle>
                <circle id="Oval_29" fill="#E55956" transform="translate(1017.000000, 205.000000) rotate(50.400000) translate(-1017.000000, -205.000000) " cx="1017" cy="205" r="1"></circle>
                <circle id="Oval_28" fill="#E55956" transform="translate(52.000000, 544.000000) rotate(48.600000) translate(-52.000000, -544.000000) " cx="52" cy="544" r="1"></circle>
                <circle id="Oval_27" fill="#E55956" transform="translate(945.500000, 547.500000) rotate(46.800000) translate(-945.500000, -547.500000) " cx="945.5" cy="547.5" r="1.5"></circle>
                <circle id="Oval_26" fill="#E55956" transform="translate(233.500000, 931.500000) rotate(45.000000) translate(-233.500000, -931.500000) " cx="233.5" cy="931.5" r="1"></circle>
                <circle id="Oval_25" fill="#E55956" transform="translate(634.500000, 518.500000) rotate(43.200000) translate(-634.500000, -518.500000) " cx="634.5" cy="518.5" r="1"></circle>
                <circle id="Oval_24" fill="#E55956" transform="translate(542.000000, 84.000000) rotate(41.400000) translate(-542.000000, -84.000000) " cx="542" cy="84" r="1"></circle>
                <circle id="Oval_23" fill="#E55956" transform="translate(181.500000, 216.500000) rotate(39.600000) translate(-181.500000, -216.500000) " cx="181.5" cy="216.5" r="1"></circle>
                <circle id="Oval_22" fill="#E55956" transform="translate(811.000000, 99.000000) rotate(37.800000) translate(-811.000000, -99.000000) " cx="811" cy="99" r="1"></circle>
                <circle id="Oval_21" fill="#E55956" transform="translate(531.000000, 338.000000) rotate(36.000000) translate(-531.000000, -338.000000) " cx="531" cy="338" r="2"></circle>
                <circle id="Oval_20" fill="#E55956" transform="translate(117.000000, 421.000000) rotate(34.200000) translate(-117.000000, -421.000000) " cx="117" cy="421" r="1"></circle>
                <circle id="Oval_19" fill="#E55956" transform="translate(430.000000, 275.000000) rotate(32.400000) translate(-430.000000, -275.000000) " cx="430" cy="275" r="2"></circle>
                <circle id="Oval_18" fill="#E55956" transform="translate(1335.000000, 336.000000) rotate(30.600000) translate(-1335.000000, -336.000000) " cx="1335" cy="336" r="1"></circle>
                <circle id="Oval_17" fill="#E55956" transform="translate(266.000000, 981.000000) rotate(28.800000) translate(-266.000000, -981.000000) " cx="266" cy="981" r="1"></circle>
                <circle id="Oval_16" fill="#E55956" transform="translate(963.000000, 452.000000) rotate(27.000000) translate(-963.000000, -452.000000) " cx="963" cy="452" r="1"></circle>
                <circle id="Oval_15" fill="#E55956" transform="translate(501.500000, 892.500000) rotate(25.200000) translate(-501.500000, -892.500000) " cx="501.5" cy="892.5" r="1.5"></circle>
                <circle id="Oval_14" fill="#E55956" transform="translate(1349.500000, 743.500000) rotate(23.400000) translate(-1349.500000, -743.500000) " cx="1349.5" cy="743.5" r="1.5"></circle>
                <circle id="Oval_13" fill="#E55956" transform="translate(859.000000, 951.000000) rotate(21.600000) translate(-859.000000, -951.000000) " cx="859" cy="951" r="2"></circle>
                <circle id="Oval_12" fill="#E55956" transform="translate(211.000000, 181.000000) rotate(19.800000) translate(-211.000000, -181.000000) " cx="211" cy="181" r="1"></circle>
                <circle id="Oval_11" fill="#E55956" transform="translate(1396.500000, 404.500000) rotate(18.000000) translate(-1396.500000, -404.500000) " cx="1396.5" cy="404.5" r="2.5"></circle>
                <circle id="Oval_10" fill="#E55956" transform="translate(1139.000000, 788.000000) rotate(16.200000) translate(-1139.000000, -788.000000) " cx="1139" cy="788" r="1"></circle>
                <circle id="Oval_9" fill="#E55956" transform="translate(1407.500000, 300.500000) rotate(14.400000) translate(-1407.500000, -300.500000) " cx="1407.5" cy="300.5" r="1.5"></circle>
                <circle id="Oval_8" fill="#E55956" transform="translate(456.000000, 675.000000) rotate(12.600000) translate(-456.000000, -675.000000) " cx="456" cy="675" r="1"></circle>
                <circle id="Oval_7" fill="#E55956" transform="translate(1.500000, 778.500000) rotate(10.800000) translate(-1.500000, -778.500000) " cx="1.5" cy="778.5" r="1"></circle>
                <circle id="Oval_6" fill="#E55956" transform="translate(932.500000, 325.500000) rotate(9.000000) translate(-932.500000, -325.500000) " cx="932.5" cy="325.5" r="1"></circle>
                <circle id="Oval_5" fill="#E55956" transform="translate(1407.500000, 77.500000) rotate(7.200000) translate(-1407.500000, -77.500000) " cx="1407.5" cy="77.5" r="2.5"></circle>
                <circle id="Oval_4" fill="#E55956" transform="translate(706.500000, 46.500000) rotate(5.400000) translate(-706.500000, -46.500000) " cx="706.5" cy="46.5" r="1"></circle>
                <circle id="Oval_3" fill="#E55956" transform="translate(62.500000, 581.500000) rotate(3.600000) translate(-62.500000, -581.500000) " cx="62.5" cy="581.5" r="1.5"></circle>
                <circle id="Oval_2" fill="#E55956" transform="translate(1024.500000, 855.500000) rotate(1.800000) translate(-1024.500000, -855.500000) " cx="1024.5" cy="855.5" r="2.5"></circle>
                <circle id="Oval_1" fill="#E55956" cx="456" cy="426" r="1"></circle>
                <circle id="Oval_200" fill="#F7FBF6" cx="1316" cy="753" r="1"></circle>
                <circle id="Oval_199" fill="#F7FBF6" cx="791.5" cy="48.5" r="1"></circle>
                <circle id="Oval_198" fill="#F7FBF6" cx="840" cy="24" r="3"></circle>
                <circle id="Oval_197" fill="#F7FBF6" cx="490.5" cy="656.5" r="1"></circle>
                <circle id="Oval_196" fill="#F7FBF6" cx="796.5" cy="691.5" r="1"></circle>
                <circle id="Oval_195" fill="#F7FBF6" cx="833" cy="812" r="2"></circle>
                <circle id="Oval_194" fill="#F7FBF6" cx="475" cy="888" r="1"></circle>
                <circle id="Oval_193" fill="#F7FBF6" cx="958.5" cy="19.5" r="1.5"></circle>
                <circle id="Oval_192" fill="#F7FBF6" cx="472.5" cy="50.5" r="1"></circle>
                <circle id="Oval_191" fill="#F7FBF6" cx="499" cy="956" r="2"></circle>
                <circle id="Oval_190" fill="#F7FBF6" cx="67" cy="362" r="1"></circle>
                <circle id="Oval_189" fill="#F7FBF6" cx="689" cy="262" r="1"></circle>
                <circle id="Oval_188" fill="#F7FBF6" cx="877.5" cy="357.5" r="1"></circle>
                <circle id="Oval_187" fill="#F7FBF6" cx="1203" cy="34" r="2"></circle>
                <circle id="Oval_186" fill="#F7FBF6" cx="1159.5" cy="130.5" r="1"></circle>
                <circle id="Oval_185" fill="#F7FBF6" cx="1408.5" cy="99.5" r="1"></circle>
                <circle id="Oval_184" fill="#F7FBF6" cx="1254" cy="775" r="1"></circle>
                <circle id="Oval_183" fill="#F7FBF6" cx="489.5" cy="759.5" r="1"></circle>
                <circle id="Oval_182" fill="#F7FBF6" cx="1183" cy="87" r="2"></circle>
                <circle id="Oval_181" fill="#F7FBF6" cx="1058" cy="974" r="1"></circle>
                <circle id="Oval_180" fill="#F7FBF6" cx="22.5" cy="946.5" r="1"></circle>
                <circle id="Oval_179" fill="#F7FBF6" cx="487.5" cy="54.5" r="2.5"></circle>
                <circle id="Oval_178" fill="#F7FBF6" cx="960" cy="65" r="3"></circle>
                <circle id="Oval_177" fill="#F7FBF6" cx="1414.5" cy="543.5" r="2.5"></circle>
                <circle id="Oval_176" fill="#F7FBF6" cx="788.5" cy="358.5" r="2.5"></circle>
                <circle id="Oval_175" fill="#F7FBF6" cx="456" cy="376" r="1"></circle>
                <circle id="Oval_174" fill="#F7FBF6" cx="147" cy="656" r="1"></circle>
                <circle id="Oval_173" fill="#F7FBF6" cx="1384" cy="70" r="1"></circle>
                <circle id="Oval_172" fill="#F7FBF6" cx="575" cy="347" r="1"></circle>
                <circle id="Oval_171" fill="#F7FBF6" cx="410.5" cy="794.5" r="1"></circle>
                <circle id="Oval_170" fill="#F7FBF6" cx="894" cy="194" r="3"></circle>
                <circle id="Oval_169" fill="#F7FBF6" cx="1399.5" cy="933.5" r="1.5"></circle>
                <circle id="Oval_168" fill="#F7FBF6" cx="246.5" cy="644.5" r="2.5"></circle>
                <circle id="Oval_167" fill="#F7FBF6" cx="421.5" cy="615.5" r="1"></circle>
                <circle id="Oval_166" fill="#F7FBF6" cx="982" cy="719" r="3"></circle>
                <circle id="Oval_165" fill="#F7FBF6" cx="467.5" cy="523.5" r="1"></circle>
                <circle id="Oval_164" fill="#F7FBF6" cx="927.5" cy="940.5" r="2.5"></circle>
                <circle id="Oval_163" fill="#F7FBF6" cx="794" cy="935" r="3"></circle>
                <circle id="Oval_162" fill="#F7FBF6" cx="188" cy="826" r="3"></circle>
                <circle id="Oval_161" fill="#F7FBF6" cx="1139" cy="841" r="1"></circle>
                <circle id="Oval_160" fill="#F7FBF6" cx="1362.5" cy="245.5" r="1"></circle>
                <circle id="Oval_159" fill="#F7FBF6" cx="1193" cy="913" r="2"></circle>
                <circle id="Oval_158" fill="#F7FBF6" cx="1212" cy="417" r="2"></circle>
                <circle id="Oval_157" fill="#F7FBF6" cx="344" cy="1009" r="3"></circle>
                <circle id="Oval_156" fill="#F7FBF6" cx="133" cy="530" r="1"></circle>
                <circle id="Oval_155" fill="#F7FBF6" cx="1125.5" cy="102.5" r="1"></circle>
                <circle id="Oval_154" fill="#F7FBF6" cx="159.5" cy="163.5" r="2.5"></circle>
                <circle id="Oval_153" fill="#F7FBF6" cx="72" cy="175" r="3"></circle>
                <circle id="Oval_152" fill="#F7FBF6" cx="657.5" cy="550.5" r="2.5"></circle>
                <circle id="Oval_151" fill="#F7FBF6" cx="901.5" cy="362.5" r="2.5"></circle>
                <circle id="Oval_150" fill="#F7FBF6" cx="947" cy="713" r="1"></circle>
                <circle id="Oval_149" fill="#F7FBF6" cx="461.5" cy="638.5" r="2.5"></circle>
                <circle id="Oval_148" fill="#F7FBF6" cx="74" cy="585" r="1"></circle>
                <circle id="Oval_147" fill="#F7FBF6" cx="691.5" cy="823.5" r="1"></circle>
                <circle id="Oval_146" fill="#F7FBF6" cx="975" cy="623" r="1"></circle>
                <circle id="Oval_145" fill="#F7FBF6" cx="1086" cy="246" r="1"></circle>
                <circle id="Oval_144" fill="#F7FBF6" cx="1322.5" cy="293.5" r="2.5"></circle>
                <circle id="Oval_143" fill="#F7FBF6" cx="649.5" cy="206.5" r="1.5"></circle>
                <circle id="Oval_142" fill="#F7FBF6" cx="788.5" cy="698.5" r="1"></circle>
                <circle id="Oval_141" fill="#F7FBF6" cx="490" cy="981" r="1"></circle>
                <circle id="Oval_140" fill="#F7FBF6" cx="338" cy="602" r="1"></circle>
                <circle id="Oval_139" fill="#F7FBF6" cx="525" cy="747" r="3"></circle>
                <circle id="Oval_138" fill="#F7FBF6" cx="534.5" cy="802.5" r="1"></circle>
                <circle id="Oval_137" fill="#F7FBF6" cx="593.5" cy="320.5" r="1"></circle>
                <circle id="Oval_136" fill="#F7FBF6" cx="444.5" cy="576.5" r="2.5"></circle>
                <circle id="Oval_135" fill="#F7FBF6" cx="207" cy="41" r="1"></circle>
                <circle id="Oval_134" fill="#F7FBF6" cx="1055" cy="71" r="1"></circle>
                <circle id="Oval_133" fill="#F7FBF6" cx="198.5" cy="118.5" r="1"></circle>
                <circle id="Oval_132" fill="#F7FBF6" cx="1023" cy="304" r="2"></circle>
                <circle id="Oval_131" fill="#F7FBF6" cx="1230.5" cy="129.5" r="1"></circle>
                <circle id="Oval_130" fill="#F7FBF6" cx="363.5" cy="813.5" r="1"></circle>
                <circle id="Oval_129" fill="#F7FBF6" cx="161.5" cy="904.5" r="1"></circle>
                <circle id="Oval_128" fill="#F7FBF6" cx="1167" cy="392" r="3"></circle>
                <circle id="Oval_127" fill="#F7FBF6" cx="228.5" cy="902.5" r="2.5"></circle>
                <circle id="Oval_126" fill="#F7FBF6" cx="10.5" cy="725.5" r="2.5"></circle>
                <circle id="Oval_125" fill="#F7FBF6" cx="1313.5" cy="480.5" r="2.5"></circle>
                <circle id="Oval_124" fill="#F7FBF6" cx="733" cy="688" r="1"></circle>
                <circle id="Oval_123" fill="#F7FBF6" cx="1358" cy="172" r="2"></circle>
                <circle id="Oval_122" fill="#F7FBF6" cx="659" cy="485" r="1"></circle>
                <circle id="Oval_121" fill="#F7FBF6" cx="815.5" cy="444.5" r="1"></circle>
                <circle id="Oval_120" fill="#F7FBF6" cx="1011" cy="985" r="3"></circle>
                <circle id="Oval_119" fill="#F7FBF6" cx="633" cy="192" r="1"></circle>
                <circle id="Oval_118" fill="#F7FBF6" cx="1087" cy="3" r="1"></circle>
                <circle id="Oval_117" fill="#F7FBF6" cx="1235" cy="490" r="3"></circle>
                <circle id="Oval_116" fill="#F7FBF6" cx="273.5" cy="620.5" r="2.5"></circle>
                <circle id="Oval_115" fill="#F7FBF6" cx="9.5" cy="915.5" r="2.5"></circle>
                <circle id="Oval_114" fill="#F7FBF6" cx="470" cy="430" r="3"></circle>
                <circle id="Oval_113" fill="#F7FBF6" cx="568" cy="689" r="3"></circle>
                <circle id="Oval_112" fill="#F7FBF6" cx="408.5" cy="619.5" r="1.5"></circle>
                <circle id="Oval_111" fill="#F7FBF6" cx="1023" cy="371" r="1"></circle>
                <circle id="Oval_110" fill="#F7FBF6" cx="889.5" cy="163.5" r="1"></circle>
                <circle id="Oval_109" fill="#F7FBF6" cx="1395.5" cy="854.5" r="1"></circle>
                <circle id="Oval_108" fill="#F7FBF6" cx="679" cy="78" r="1"></circle>
                <circle id="Oval_107" fill="#F7FBF6" cx="53" cy="368" r="1"></circle>
                <circle id="Oval_106" fill="#F7FBF6" cx="1287" cy="330" r="1"></circle>
                <circle id="Oval_105" fill="#F7FBF6" cx="437" cy="83" r="3"></circle>
                <circle id="Oval_104" fill="#F7FBF6" cx="973" cy="355" r="3"></circle>
                <circle id="Oval_103" fill="#F7FBF6" cx="770" cy="237" r="3"></circle>
                <circle id="Oval_102" fill="#F7FBF6" cx="471" cy="842" r="3"></circle>
                <circle id="Oval_101" fill="#F7FBF6" cx="1209" cy="165" r="1"></circle>
                <circle id="Oval_100" fill="#F7FBF6" cx="413.5" cy="60.5" r="1"></circle>
                <circle id="Oval_99" fill="#F7FBF6" cx="238" cy="292" r="1"></circle>
                <circle id="Oval_98" fill="#F7FBF6" cx="1149" cy="367" r="1"></circle>
                <circle id="Oval_97" fill="#F7FBF6" cx="290" cy="468" r="1"></circle>
                <circle id="Oval_96" fill="#F7FBF6" cx="611.5" cy="798.5" r="1"></circle>
                <circle id="Oval_95" fill="#F7FBF6" cx="1359.5" cy="976.5" r="1.5"></circle>
                <circle id="Oval_94" fill="#F7FBF6" cx="156.5" cy="612.5" r="1"></circle>
                <circle id="Oval_93" fill="#F7FBF6" cx="1042" cy="896" r="2"></circle>
                <circle id="Oval_92" fill="#F7FBF6" cx="950.5" cy="880.5" r="1"></circle>
                <circle id="Oval_91" fill="#F7FBF6" cx="333.5" cy="384.5" r="1.5"></circle>
                <circle id="Oval_90" fill="#F7FBF6" cx="948" cy="357" r="3"></circle>
                <circle id="Oval_89" fill="#F7FBF6" cx="738.5" cy="197.5" r="1"></circle>
                <circle id="Oval_88" fill="#F7FBF6" cx="564.5" cy="971.5" r="1"></circle>
                <circle id="Oval_87" fill="#F7FBF6" cx="560" cy="1008" r="2"></circle>
                <circle id="Oval_86" fill="#F7FBF6" cx="815.5" cy="14.5" r="1.5"></circle>
                <circle id="Oval_85" fill="#F7FBF6" cx="855" cy="574" r="1"></circle>
                <circle id="Oval_84" fill="#F7FBF6" cx="1303.5" cy="563.5" r="1"></circle>
                <circle id="Oval_83" fill="#F7FBF6" cx="1339" cy="854" r="3"></circle>
                <circle id="Oval_82" fill="#F7FBF6" cx="782.5" cy="336.5" r="1"></circle>
                <circle id="Oval_81" fill="#F7FBF6" cx="148" cy="544" r="1"></circle>
                <circle id="Oval_80" fill="#F7FBF6" cx="1208" cy="31" r="2"></circle>
                <circle id="Oval_79" fill="#F7FBF6" cx="249" cy="794" r="1"></circle>
                <circle id="Oval_78" fill="#F7FBF6" cx="570" cy="319" r="2"></circle>
                <circle id="Oval_77" fill="#F7FBF6" cx="156" cy="988" r="1"></circle>
                <circle id="Oval_76" fill="#F7FBF6" cx="235" cy="385" r="1"></circle>
                <circle id="Oval_75" fill="#F7FBF6" cx="908" cy="167" r="1"></circle>
                <circle id="Oval_74" fill="#F7FBF6" cx="34" cy="483" r="3"></circle>
                <circle id="Oval_73" fill="#F7FBF6" cx="831.5" cy="285.5" r="1.5"></circle>
                <circle id="Oval_72" fill="#F7FBF6" cx="1082.5" cy="669.5" r="1.5"></circle>
                <circle id="Oval_71" fill="#F7FBF6" cx="426.5" cy="291.5" r="2.5"></circle>
                <circle id="Oval_70" fill="#F7FBF6" cx="1048.5" cy="269.5" r="2.5"></circle>
                <circle id="Oval_69" fill="#F7FBF6" cx="571" cy="330" r="1"></circle>
                <circle id="Oval_68" fill="#F7FBF6" cx="502.5" cy="434.5" r="1"></circle>
                <circle id="Oval_67" fill="#F7FBF6" cx="1360" cy="910" r="1"></circle>
                <circle id="Oval_66" fill="#F7FBF6" cx="36.5" cy="923.5" r="2.5"></circle>
                <circle id="Oval_65" fill="#F7FBF6" cx="339" cy="244" r="1"></circle>
                <circle id="Oval_64" fill="#F7FBF6" cx="26" cy="570" r="2"></circle>
                <circle id="Oval_63" fill="#F7FBF6" cx="399" cy="793" r="1"></circle>
                <circle id="Oval_62" fill="#F7FBF6" cx="409.5" cy="755.5" r="1"></circle>
                <circle id="Oval_61" fill="#F7FBF6" cx="802" cy="353" r="1"></circle>
                <circle id="Oval_60" fill="#F7FBF6" cx="902" cy="452" r="1"></circle>
                <circle id="Oval_59" fill="#F7FBF6" cx="298" cy="932" r="2"></circle>
                <circle id="Oval_58" fill="#F7FBF6" cx="225.5" cy="116.5" r="1.5"></circle>
                <circle id="Oval_57" fill="#F7FBF6" cx="1353.5" cy="589.5" r="1"></circle>
                <circle id="Oval_56" fill="#F7FBF6" cx="947" cy="188" r="2"></circle>
                <circle id="Oval_55" fill="#F7FBF6" cx="183" cy="866" r="3"></circle>
                <circle id="Oval_54" fill="#F7FBF6" cx="56" cy="977" r="3"></circle>
                <circle id="Oval_53" fill="#F7FBF6" cx="635.5" cy="482.5" r="1.5"></circle>
                <circle id="Oval_52" fill="#F7FBF6" cx="445.5" cy="428.5" r="1.5"></circle>
                <circle id="Oval_51" fill="#F7FBF6" cx="1025" cy="762" r="1"></circle>
                <circle id="Oval_50" fill="#F7FBF6" cx="521" cy="300" r="1"></circle>
                <circle id="Oval_49" fill="#F7FBF6" cx="176" cy="1017" r="1"></circle>
                <circle id="Oval_48" fill="#F7FBF6" cx="1226" cy="682" r="3"></circle>
                <circle id="Oval_47" fill="#F7FBF6" cx="760" cy="960" r="2"></circle>
                <circle id="Oval_46" fill="#F7FBF6" cx="244.5" cy="178.5" r="1"></circle>
                <circle id="Oval_45" fill="#F7FBF6" cx="137" cy="252" r="1"></circle>
                <circle id="Oval_44" fill="#F7FBF6" cx="1050.5" cy="547.5" r="1"></circle>
                <circle id="Oval_43" fill="#F7FBF6" cx="1231.5" cy="964.5" r="1"></circle>
                <circle id="Oval_42" fill="#F7FBF6" cx="835.5" cy="519.5" r="1.5"></circle>
                <circle id="Oval_41" fill="#F7FBF6" cx="1028" cy="30" r="1"></circle>
                <circle id="Oval_40" fill="#F7FBF6" cx="962.5" cy="653.5" r="1.5"></circle>
                <circle id="Oval_39" fill="#F7FBF6" cx="932.5" cy="423.5" r="1.5"></circle>
                <circle id="Oval_38" fill="#F7FBF6" cx="475" cy="431" r="1"></circle>
                <circle id="Oval_37" fill="#F7FBF6" cx="1118" cy="196" r="1"></circle>
                <circle id="Oval_36" fill="#F7FBF6" cx="93.5" cy="423.5" r="1.5"></circle>
                <circle id="Oval_35" fill="#F7FBF6" cx="381.5" cy="676.5" r="1"></circle>
                <circle id="Oval_34" fill="#F7FBF6" cx="347.5" cy="551.5" r="1"></circle>
                <circle id="Oval_33" fill="#F7FBF6" cx="1004.5" cy="903.5" r="1"></circle>
                <circle id="Oval_32" fill="#F7FBF6" cx="1383.5" cy="45.5" r="1.5"></circle>
                <circle id="Oval_31" fill="#F7FBF6" cx="1142" cy="157" r="1"></circle>
                <circle id="Oval_30" fill="#F7FBF6" cx="214" cy="902" r="1"></circle>
                <circle id="Oval_29" fill="#F7FBF6" cx="871" cy="939" r="1"></circle>
                <circle id="Oval_28" fill="#F7FBF6" cx="1374" cy="439" r="3"></circle>
                <circle id="Oval_27" fill="#F7FBF6" cx="369" cy="600" r="2"></circle>
                <circle id="Oval_26" fill="#F7FBF6" cx="1193.5" cy="270.5" r="2.5"></circle>
                <circle id="Oval_25" fill="#F7FBF6" cx="1033.5" cy="789.5" r="2.5"></circle>
                <circle id="Oval_24" fill="#F7FBF6" cx="1178" cy="183" r="3"></circle>
                <circle id="Oval_23" fill="#F7FBF6" cx="1061" cy="901" r="2"></circle>
                <circle id="Oval_22" fill="#F7FBF6" cx="437" cy="276" r="2"></circle>
                <circle id="Oval_21" fill="#F7FBF6" cx="795.5" cy="97.5" r="1"></circle>
                <circle id="Oval_20" fill="#F7FBF6" cx="1148.5" cy="917.5" r="2.5"></circle>
                <circle id="Oval_19" fill="#F7FBF6" cx="393" cy="78" r="3"></circle>
                <circle id="Oval_18" fill="#F7FBF6" cx="1099.5" cy="141.5" r="1"></circle>
                <circle id="Oval_17" fill="#F7FBF6" cx="578" cy="939" r="2"></circle>
                <circle id="Oval_16" fill="#F7FBF6" cx="833" cy="102" r="1"></circle>
                <circle id="Oval_15" fill="#F7FBF6" cx="825" cy="572" r="1"></circle>
                <circle id="Oval_14" fill="#F7FBF6" cx="759" cy="435" r="1"></circle>
                <circle id="Oval_13" fill="#F7FBF6" cx="239" cy="211" r="1"></circle>
                <circle id="Oval_12" fill="#F7FBF6" cx="1181.5" cy="58.5" r="1"></circle>
                <circle id="Oval_11" fill="#F7FBF6" cx="161" cy="971" r="3"></circle>
                <circle id="Oval_10" fill="#F7FBF6" cx="1419" cy="590" r="1"></circle>
                <circle id="Oval_9" fill="#F7FBF6" cx="385" cy="89" r="1"></circle>
                <circle id="Oval_8" fill="#F7FBF6" cx="20" cy="206" r="1"></circle>
                <circle id="Oval_7" fill="#F7FBF6" cx="189.5" cy="58.5" r="1.5"></circle>
                <circle id="Oval_6" fill="#F7FBF6" cx="747" cy="483" r="1"></circle>
                <circle id="Oval_5" fill="#F7FBF6" cx="53" cy="1022" r="1"></circle>
                <circle id="Oval_4" fill="#F7FBF6" cx="650" cy="384" r="2"></circle>
                <circle id="Oval_3" fill="#F7FBF6" cx="1061" cy="133" r="2"></circle>
                <circle id="Oval_2" fill="#F7FBF6" cx="846" cy="129" r="1"></circle>
                <circle id="Oval_1" fill="#F7FBF6" cx="453" cy="426" r="1"></circle>
            </g>
        </g>
    </g>
</svg>